<?xml version="1.0" standalone="no"?><svg xmlns:xlink="http://www.w3.org/1999/xlink" xmlns="http://www.w3.org/2000/svg" viewBox="0 0 1000 583.3278244199114" preserveAspectRatio="xMaxYMax slice"><g transform="scale(1.3221392212599987)"><rect x="0" y="0" width="819.3714285714286" height="441.20000000000005" fill="#ffffff"/><rect x="0" y="0" width="63.02857142857143" height="63.02857142857143" fill="#ffffff"/><rect x="0" y="0" width="31.51" height="31.51" fill="#f5e2e7"/><path d="M 0 0 A 31.51 31.51 0 0 1  31.51 31.51 L 0 0 A 31.51 31.51 0 0 0 31.51 31.51" fill="#d4dec3"/><rect x="31.51" y="0" width="31.51" height="31.51" fill="#a2b87f"/><path d="M 31.51 31.51 A 31.51 31.51 0 0 1  63.02 0 L 63.02 31.51" fill="#d995a5"/><rect x="0" y="31.51" width="31.51" height="31.51" fill="#dfa5b2"/><path d="M 0 63.02 A 31.51 31.51 0 0 1  31.51 31.51 L 0 63.02 A 31.51 31.51 0 0 0 31.51 31.51" fill="#d17e91"/><rect x="31.51" y="31.51" width="31.51" height="31.51" fill="#f5e4e8"/><path d="M 31.51 31.51 A 31.51 31.51 0 0 0 63.02 63.02 L 63.02 31.51" fill="#dc9eac"/><rect x="63.03" y="0" width="63.03" height="63.03" fill="#d28294"/><path d="M 63.03 63.03 A 63.03 63.03 0 0 1  126.06 0 L 126.06 63.03" fill="#e7bcc6"/><rect x="126.06" y="0" width="63.03" height="63.03" fill="#f6e5e8"/><path d="M 126.06 63.03 A 63.03 63.03 0 0 0 189.09 0 L 126.06 0" fill="#d78f9f"/><rect x="189.09" y="0" width="63.03" height="63.03" fill="#c0cfa8"/><path d="M 189.09 63.03 A 63.03 63.03 0 0 1  252.12 0 L 189.09 63.03 A 63.03 63.03 0 0 0 252.12 0" fill="#b6c79a"/><rect x="252.11" y="0" width="63.03" height="63.03" fill="#a1b77d"/><path d="M 252.11 0 A 63.03 63.03 0 0 0 315.14 63.03 L 315.14 0" fill="#dae3cc"/><rect x="315.14" y="0" width="63.03" height="63.03" fill="#f3dee3"/><path d="M 315.14 0 A 63.03 63.03 0 0 1 378.16999999999996 63.03 L 315.14 63.03" fill="#e7bdc7"/><rect x="378.17" y="0" width="63.03" height="63.03" fill="#adc08e"/><path d="M 378.17 0 A 63.03 63.03 0 0 1  441.20000000000005 63.03 L 378.17 0 A 63.03 63.03 0 0 0 441.20000000000005 63.03" fill="#e0a8b4"/><rect x="441.20000000000005" y="0" width="63.02857142857143" height="63.02857142857143" fill="#ffffff"/><rect x="441.2" y="0" width="31.51" height="31.51" fill="#f9eff2"/><path d="M 441.2 0 A 31.51 31.51 0 0 1  472.71 31.51 L 441.2 0 A 31.51 31.51 0 0 0 472.71 31.51" fill="#dce4cf"/><rect x="472.71" y="0" width="31.51" height="31.51" fill="#b1c394"/><path d="M 472.71 31.51 A 31.51 31.51 0 0 0 504.21999999999997 0 L 472.71 0" fill="#ecc9d1"/><rect x="441.2" y="31.51" width="31.51" height="31.51" fill="#d38496"/><path d="M 441.2 63.02 A 31.51 31.51 0 0 1  472.71 31.51 L 441.2 63.02 A 31.51 31.51 0 0 0 472.71 31.51" fill="#b9ca9f"/><rect x="472.71" y="31.51" width="31.51" height="31.51" fill="#d791a1"/><path d="M 472.71 31.51 A 31.51 31.51 0 0 1 504.21999999999997 63.02 L 472.71 63.02" fill="#d996a5"/><rect x="504.22857142857146" y="0" width="63.02857142857143" height="63.02857142857143" fill="#ffffff"/><rect x="504.23" y="0" width="31.51" height="31.51" fill="#e3b2bd"/><path d="M 504.23 0 A 31.51 31.51 0 0 0 535.74 31.51 L 535.74 0" fill="#edced5"/><rect x="535.74" y="0" width="31.51" height="31.51" fill="#a0b67c"/><path d="M 535.74 31.51 A 31.51 31.51 0 0 1  567.25 0 L 567.25 31.51" fill="#d58b9c"/><rect x="504.23" y="31.51" width="31.51" height="31.51" fill="#d8e1ca"/><path d="M 504.23 31.51 A 31.51 31.51 0 0 0 535.74 63.02 L 535.74 31.51" fill="#dfe7d4"/><rect x="535.74" y="31.51" width="31.51" height="31.51" fill="#cdd9bb"/><path d="M 535.74 63.02 A 31.51 31.51 0 0 1  567.25 31.51 L 535.74 63.02 A 31.51 31.51 0 0 0 567.25 31.51" fill="#b1c394"/><rect x="567.2571428571429" y="0" width="63.02857142857143" height="63.02857142857143" fill="#ffffff"/><rect x="567.26" y="0" width="31.51" height="31.51" fill="#b5c699"/><path d="M 567.26 0 A 31.51 31.51 0 0 1 598.77 31.51 L 567.26 31.51" fill="#efd2d9"/><rect x="598.77" y="0" width="31.51" height="31.51" fill="#e5b7c1"/><path d="M 598.77 31.51 A 31.51 31.51 0 0 1  630.28 0 L 630.28 31.51" fill="#bccba2"/><rect x="567.26" y="31.51" width="31.51" height="31.51" fill="#dbe3cd"/><path d="M 567.26 63.02 A 31.51 31.51 0 0 1  598.77 31.51 L 598.77 63.02" fill="#fdfefd"/><rect x="598.77" y="31.51" width="31.51" height="31.51" fill="#c1cfa9"/><path d="M 598.77 31.51 A 31.51 31.51 0 0 0 630.28 63.02 L 630.28 31.51" fill="#c1cfa9"/><rect x="630.29" y="0" width="63.03" height="63.03" fill="#a6bb85"/><path d="M 630.29 0 A 63.03 63.03 0 0 0 693.3199999999999 63.03 L 693.3199999999999 0" fill="#bfcea7"/><rect x="693.3142857142858" y="0" width="63.02857142857143" height="63.02857142857143" fill="#ffffff"/><rect x="693.31" y="0" width="31.51" height="31.51" fill="#d48697"/><path d="M 693.31 31.51 A 31.51 31.51 0 0 0 724.8199999999999 0 L 693.31 0" fill="#fcf7f8"/><rect x="724.83" y="0" width="31.51" height="31.51" fill="#f3f6ee"/><path d="M 724.83 0 A 31.51 31.51 0 0 1 756.34 31.51 L 724.83 31.51" fill="#f7f9f4"/><rect x="693.31" y="31.51" width="31.51" height="31.51" fill="#fefefe"/><path d="M 693.31 31.51 A 31.51 31.51 0 0 1 724.8199999999999 63.02 L 693.31 63.02" fill="#e6bac4"/><rect x="724.83" y="31.51" width="31.51" height="31.51" fill="#e9c3cc"/><path d="M 724.83 31.51 A 31.51 31.51 0 0 1 756.34 63.02 L 724.83 63.02" fill="#fafbf8"/><rect x="756.34" y="0" width="63.03" height="63.03" fill="#d68c9d"/><path d="M 756.34 63.03 A 63.03 63.03 0 0 1  819.37 0 L 819.37 63.03" fill="#d68c9d"/><rect x="0" y="63.03" width="63.03" height="63.03" fill="#cfdabd"/><path d="M 0 63.03 A 63.03 63.03 0 0 1  63.03 126.06 L 0 63.03 A 63.03 63.03 0 0 0 63.03 126.06" fill="#c9d5b4"/><rect x="63.03" y="63.03" width="63.03" height="63.03" fill="#d4dec3"/><path d="M 63.03 126.06 A 63.03 63.03 0 0 1  126.06 63.03 L 63.03 126.06 A 63.03 63.03 0 0 0 126.06 63.03" fill="#f2dbe0"/><rect x="126.05714285714286" y="63.02857142857143" width="63.02857142857143" height="63.02857142857143" fill="#ffffff"/><rect x="126.06" y="63.03" width="31.51" height="31.51" fill="#b0c292"/><path d="M 126.06 94.54 A 31.51 31.51 0 0 1  157.57 63.03 L 126.06 94.54 A 31.51 31.51 0 0 0 157.57 63.03" fill="#ebc6ce"/><rect x="157.57" y="63.03" width="31.51" height="31.51" fill="#b2c495"/><path d="M 157.57 94.54 A 31.51 31.51 0 0 0 189.07999999999998 63.03 L 157.57 63.03" fill="#b1c394"/><rect x="126.06" y="94.54" width="31.51" height="31.51" fill="#dda0ae"/><path d="M 126.06 94.54 A 31.51 31.51 0 0 1 157.57 126.05000000000001 L 126.06 126.05000000000001" fill="#bdcca4"/><rect x="157.57" y="94.54" width="31.51" height="31.51" fill="#eccad1"/><path d="M 157.57 126.05000000000001 A 31.51 31.51 0 0 0 189.07999999999998 94.54 L 157.57 94.54" fill="#e6bac4"/><rect x="189.09" y="63.03" width="63.03" height="63.03" fill="#b4c597"/><path d="M 189.09 126.06 A 63.03 63.03 0 0 1  252.12 63.03 L 189.09 126.06 A 63.03 63.03 0 0 0 252.12 63.03" fill="#d78f9f"/><rect x="252.11428571428573" y="63.02857142857143" width="63.02857142857143" height="63.02857142857143" fill="#ffffff"/><rect x="252.11" y="63.03" width="31.51" height="31.51" fill="#acbf8d"/><path d="M 252.11 63.03 A 31.51 31.51 0 0 1  283.62 94.54 L 252.11 63.03 A 31.51 31.51 0 0 0 283.62 94.54" fill="#fdf9f9"/><rect x="283.63" y="63.03" width="31.51" height="31.51" fill="#dda0ad"/><path d="M 283.63 94.54 A 31.51 31.51 0 0 0 315.14 63.03 L 283.63 63.03" fill="#e2e9d7"/><rect x="252.11" y="94.54" width="31.51" height="31.51" fill="#f4e0e4"/><path d="M 252.11 126.05000000000001 A 31.51 31.51 0 0 0 283.62 94.54 L 252.11 94.54" fill="#e1acb8"/><rect x="283.63" y="94.54" width="31.51" height="31.51" fill="#d996a5"/><path d="M 283.63 94.54 A 31.51 31.51 0 0 1 315.14 126.05000000000001 L 283.63 126.05000000000001" fill="#d6e0c7"/><rect x="315.14" y="63.03" width="63.03" height="63.03" fill="#e5b5c0"/><path d="M 315.14 126.06 A 63.03 63.03 0 0 1  378.16999999999996 63.03 L 315.14 126.06 A 63.03 63.03 0 0 0 378.16999999999996 63.03" fill="#cfdabc"/><rect x="378.1714285714286" y="63.02857142857143" width="63.02857142857143" height="63.02857142857143" fill="#ffffff"/><rect x="378.17" y="63.03" width="31.51" height="31.51" fill="#fafbf8"/><path d="M 378.17 63.03 A 31.51 31.51 0 0 1 409.68 94.54 L 378.17 94.54" fill="#b7c89c"/><rect x="409.69" y="63.03" width="31.51" height="31.51" fill="#d995a4"/><path d="M 409.69 94.54 A 31.51 31.51 0 0 1  441.2 63.03 L 441.2 94.54" fill="#e0a9b5"/><rect x="378.17" y="94.54" width="31.51" height="31.51" fill="#cfdabd"/><path d="M 378.17 126.05000000000001 A 31.51 31.51 0 0 1  409.68 94.54 L 409.68 126.05000000000001" fill="#fefcfd"/><rect x="409.69" y="94.54" width="31.51" height="31.51" fill="#dfa5b2"/><path d="M 409.69 126.05000000000001 A 31.51 31.51 0 0 1  441.2 94.54 L 409.69 126.05000000000001 A 31.51 31.51 0 0 0 441.2 94.54" fill="#dea2af"/><rect x="441.20000000000005" y="63.02857142857143" width="63.02857142857143" height="63.02857142857143" fill="#ffffff"/><rect x="441.2" y="63.03" width="31.51" height="31.51" fill="#eac4cc"/><path d="M 441.2 94.54 A 31.51 31.51 0 0 1  472.71 63.03 L 472.71 94.54" fill="#b9ca9f"/><rect x="472.71" y="63.03" width="31.51" height="31.51" fill="#dc9eac"/><path d="M 472.71 94.54 A 31.51 31.51 0 0 1  504.21999999999997 63.03 L 504.21999999999997 94.54" fill="#efd1d8"/><rect x="441.2" y="94.54" width="31.51" height="31.51" fill="#eeced5"/><path d="M 441.2 94.54 A 31.51 31.51 0 0 1  472.71 126.05000000000001 L 441.2 94.54 A 31.51 31.51 0 0 0 472.71 126.05000000000001" fill="#a2b87f"/><rect x="472.71" y="94.54" width="31.51" height="31.51" fill="#fcf6f7"/><path d="M 472.71 94.54 A 31.51 31.51 0 0 1 504.21999999999997 126.05000000000001 L 472.71 126.05000000000001" fill="#d17f92"/><rect x="504.22857142857146" y="63.02857142857143" width="63.02857142857143" height="63.02857142857143" fill="#ffffff"/><rect x="504.23" y="63.03" width="31.51" height="31.51" fill="#e6b9c4"/><path d="M 504.23 63.03 A 31.51 31.51 0 0 1 535.74 94.54 L 504.23 94.54" fill="#e0a8b4"/><rect x="535.74" y="63.03" width="31.51" height="31.51" fill="#eac5ce"/><path d="M 535.74 63.03 A 31.51 31.51 0 0 0 567.25 94.54 L 567.25 63.03" fill="#d995a4"/><rect x="504.23" y="94.54" width="31.51" height="31.51" fill="#a2b77f"/><path d="M 504.23 94.54 A 31.51 31.51 0 0 1  535.74 126.05000000000001 L 504.23 94.54 A 31.51 31.51 0 0 0 535.74 126.05000000000001" fill="#b9c99e"/><rect x="535.74" y="94.54" width="31.51" height="31.51" fill="#b0c292"/><path d="M 535.74 94.54 A 31.51 31.51 0 0 1  567.25 126.05000000000001 L 535.74 94.54 A 31.51 31.51 0 0 0 567.25 126.05000000000001" fill="#b0c292"/><rect x="567.26" y="63.03" width="63.03" height="63.03" fill="#f3dde2"/><path d="M 567.26 126.06 A 63.03 63.03 0 0 1  630.29 63.03 L 630.29 126.06" fill="#da99a7"/><rect x="630.29" y="63.03" width="63.03" height="63.03" fill="#db9ba9"/><path d="M 630.29 126.06 A 63.03 63.03 0 0 0 693.3199999999999 63.03 L 630.29 63.03" fill="#f8ecef"/><rect x="693.3142857142858" y="63.02857142857143" width="63.02857142857143" height="63.02857142857143" fill="#ffffff"/><rect x="693.31" y="63.03" width="31.51" height="31.51" fill="#f5f7f1"/><path d="M 693.31 63.03 A 31.51 31.51 0 0 1  724.8199999999999 94.54 L 693.31 63.03 A 31.51 31.51 0 0 0 724.8199999999999 94.54" fill="#a4b981"/><rect x="724.83" y="63.03" width="31.51" height="31.51" fill="#edf1e6"/><path d="M 724.83 94.54 A 31.51 31.51 0 0 1  756.34 63.03 L 724.83 94.54 A 31.51 31.51 0 0 0 756.34 63.03" fill="#d3ddc2"/><rect x="693.31" y="94.54" width="31.51" height="31.51" fill="#e1abb7"/><path d="M 693.31 126.05000000000001 A 31.51 31.51 0 0 1  724.8199999999999 94.54 L 724.8199999999999 126.05000000000001" fill="#d9e2ca"/><rect x="724.83" y="94.54" width="31.51" height="31.51" fill="#a4b981"/><path d="M 724.83 94.54 A 31.51 31.51 0 0 0 756.34 126.05000000000001 L 756.34 94.54" fill="#f6e5e9"/><rect x="756.3428571428572" y="63.02857142857143" width="63.02857142857143" height="63.02857142857143" fill="#ffffff"/><rect x="756.34" y="63.03" width="31.51" height="31.51" fill="#b4c597"/><path d="M 756.34 94.54 A 31.51 31.51 0 0 1  787.85 63.03 L 756.34 94.54 A 31.51 31.51 0 0 0 787.85 63.03" fill="#fefcfc"/><rect x="787.86" y="63.03" width="31.51" height="31.51" fill="#b2c495"/><path d="M 787.86 63.03 A 31.51 31.51 0 0 1 819.37 94.54 L 787.86 94.54" fill="#f5e2e6"/><rect x="756.34" y="94.54" width="31.51" height="31.51" fill="#d38597"/><path d="M 756.34 94.54 A 31.51 31.51 0 0 1  787.85 126.05000000000001 L 756.34 94.54 A 31.51 31.51 0 0 0 787.85 126.05000000000001" fill="#fafbf8"/><rect x="787.86" y="94.54" width="31.51" height="31.51" fill="#d68c9d"/><path d="M 787.86 94.54 A 31.51 31.51 0 0 1 819.37 126.05000000000001 L 787.86 126.05000000000001" fill="#fcf7f8"/><rect x="0" y="126.05714285714286" width="63.02857142857143" height="63.02857142857143" fill="#ffffff"/><rect x="0" y="126.06" width="31.51" height="31.51" fill="#e9c1ca"/><path d="M 0 126.06 A 31.51 31.51 0 0 1  31.51 157.57 L 0 126.06 A 31.51 31.51 0 0 0 31.51 157.57" fill="#a6bb85"/><rect x="31.51" y="126.06" width="31.51" height="31.51" fill="#fffefe"/><path d="M 31.51 157.57 A 31.51 31.51 0 0 1  63.02 126.06 L 63.02 157.57" fill="#ffffff"/><rect x="0" y="157.57" width="31.51" height="31.51" fill="#ecc9d1"/><path d="M 0 157.57 A 31.51 31.51 0 0 1  31.51 189.07999999999998 L 0 157.57 A 31.51 31.51 0 0 0 31.51 189.07999999999998" fill="#f5f7f1"/><rect x="31.51" y="157.57" width="31.51" height="31.51" fill="#fbf3f5"/><path d="M 31.51 189.07999999999998 A 31.51 31.51 0 0 1  63.02 157.57 L 31.51 189.07999999999998 A 31.51 31.51 0 0 0 63.02 157.57" fill="#fffefe"/><rect x="63.03" y="126.06" width="63.03" height="63.03" fill="#cbd7b7"/><path d="M 63.03 189.09 A 63.03 63.03 0 0 1  126.06 126.06 L 63.03 189.09 A 63.03 63.03 0 0 0 126.06 126.06" fill="#a1b67d"/><rect x="126.06" y="126.06" width="63.03" height="63.03" fill="#a1b67d"/><path d="M 126.06 189.09 A 63.03 63.03 0 0 1  189.09 126.06 L 126.06 189.09 A 63.03 63.03 0 0 0 189.09 126.06" fill="#c8d4b3"/><rect x="189.0857142857143" y="126.05714285714286" width="63.02857142857143" height="63.02857142857143" fill="#ffffff"/><rect x="189.09" y="126.06" width="31.51" height="31.51" fill="#f2dadf"/><path d="M 189.09 126.06 A 31.51 31.51 0 0 0 220.6 157.57 L 220.6 126.06" fill="#cdd8ba"/><rect x="220.6" y="126.06" width="31.51" height="31.51" fill="#f6f8f3"/><path d="M 220.6 126.06 A 31.51 31.51 0 0 1 252.10999999999999 157.57 L 220.6 157.57" fill="#c5d2ae"/><rect x="189.09" y="157.57" width="31.51" height="31.51" fill="#dce4cf"/><path d="M 189.09 189.07999999999998 A 31.51 31.51 0 0 1  220.6 157.57 L 220.6 189.07999999999998" fill="#cbd7b7"/><rect x="220.6" y="157.57" width="31.51" height="31.51" fill="#f5e3e7"/><path d="M 220.6 157.57 A 31.51 31.51 0 0 1  252.10999999999999 189.07999999999998 L 220.6 157.57 A 31.51 31.51 0 0 0 252.10999999999999 189.07999999999998" fill="#d48698"/><rect x="252.11428571428573" y="126.05714285714286" width="63.02857142857143" height="63.02857142857143" fill="#ffffff"/><rect x="252.11" y="126.06" width="31.51" height="31.51" fill="#dea2af"/><path d="M 252.11 157.57 A 31.51 31.51 0 0 0 283.62 126.06 L 252.11 126.06" fill="#faf2f4"/><rect x="283.63" y="126.06" width="31.51" height="31.51" fill="#fbfcf9"/><path d="M 283.63 126.06 A 31.51 31.51 0 0 0 315.14 157.57 L 315.14 126.06" fill="#e8bec7"/><rect x="252.11" y="157.57" width="31.51" height="31.51" fill="#c5d2af"/><path d="M 252.11 157.57 A 31.51 31.51 0 0 1 283.62 189.07999999999998 L 252.11 189.07999999999998" fill="#fefefe"/><rect x="283.63" y="157.57" width="31.51" height="31.51" fill="#bdcca4"/><path d="M 283.63 157.57 A 31.51 31.51 0 0 1  315.14 189.07999999999998 L 283.63 157.57 A 31.51 31.51 0 0 0 315.14 189.07999999999998" fill="#d28294"/><rect x="315.14" y="126.06" width="63.03" height="63.03" fill="#b7c89c"/><path d="M 315.14 126.06 A 63.03 63.03 0 0 0 378.16999999999996 189.09 L 378.16999999999996 126.06" fill="#aec190"/><rect x="378.1714285714286" y="126.05714285714286" width="63.02857142857143" height="63.02857142857143" fill="#ffffff"/><rect x="378.17" y="126.06" width="31.51" height="31.51" fill="#ebc7d0"/><path d="M 378.17 157.57 A 31.51 31.51 0 0 1  409.68 126.06 L 378.17 157.57 A 31.51 31.51 0 0 0 409.68 126.06" fill="#ccd8b8"/><rect x="409.69" y="126.06" width="31.51" height="31.51" fill="#e6b8c3"/><path d="M 409.69 157.57 A 31.51 31.51 0 0 1  441.2 126.06 L 441.2 157.57" fill="#e6b9c3"/><rect x="378.17" y="157.57" width="31.51" height="31.51" fill="#faf1f3"/><path d="M 378.17 189.07999999999998 A 31.51 31.51 0 0 1  409.68 157.57 L 378.17 189.07999999999998 A 31.51 31.51 0 0 0 409.68 157.57" fill="#da97a6"/><rect x="409.69" y="157.57" width="31.51" height="31.51" fill="#d5dfc6"/><path d="M 409.69 157.57 A 31.51 31.51 0 0 1  441.2 189.07999999999998 L 409.69 157.57 A 31.51 31.51 0 0 0 441.2 189.07999999999998" fill="#c9d5b4"/><rect x="441.2" y="126.06" width="63.03" height="63.03" fill="#d48698"/><path d="M 441.2 126.06 A 63.03 63.03 0 0 1 504.23 189.09 L 441.2 189.09" fill="#c3d1ac"/><rect x="504.23" y="126.06" width="63.03" height="63.03" fill="#e9c2cb"/><path d="M 504.23 189.09 A 63.03 63.03 0 0 1  567.26 126.06 L 567.26 189.09" fill="#d8e1ca"/><rect x="567.26" y="126.06" width="63.03" height="63.03" fill="#cad6b6"/><path d="M 567.26 126.06 A 63.03 63.03 0 0 0 630.29 189.09 L 630.29 126.06" fill="#cad6b6"/><rect x="630.29" y="126.06" width="63.03" height="63.03" fill="#dae3cd"/><path d="M 630.29 189.09 A 63.03 63.03 0 0 1  693.3199999999999 126.06 L 693.3199999999999 189.09" fill="#dfa5b2"/><rect x="693.31" y="126.06" width="63.03" height="63.03" fill="#d38596"/><path d="M 693.31 126.06 A 63.03 63.03 0 0 1 756.3399999999999 189.09 L 693.31 189.09" fill="#a7bb86"/><rect x="756.34" y="126.06" width="63.03" height="63.03" fill="#f0f3ea"/><path d="M 756.34 126.06 A 63.03 63.03 0 0 1 819.37 189.09 L 756.34 189.09" fill="#d07c8f"/><rect x="0" y="189.09" width="63.03" height="63.03" fill="#dea3b1"/><path d="M 0 189.09 A 63.03 63.03 0 0 1 63.03 252.12 L 0 252.12" fill="#d78fa0"/><rect x="63.02857142857143" y="189.0857142857143" width="63.02857142857143" height="63.02857142857143" fill="#ffffff"/><rect x="63.03" y="189.09" width="31.51" height="31.51" fill="#d893a3"/><path d="M 63.03 220.6 A 31.51 31.51 0 0 1  94.54 189.09 L 63.03 220.6 A 31.51 31.51 0 0 0 94.54 189.09" fill="#f0d7dc"/><rect x="94.54" y="189.09" width="31.51" height="31.51" fill="#f8ebee"/><path d="M 94.54 189.09 A 31.51 31.51 0 0 1 126.05000000000001 220.6 L 94.54 220.6" fill="#ffffff"/><rect x="63.03" y="220.6" width="31.51" height="31.51" fill="#dae2cb"/><path d="M 63.03 220.6 A 31.51 31.51 0 0 0 94.54 252.10999999999999 L 94.54 220.6" fill="#e6ecdc"/><rect x="94.54" y="220.6" width="31.51" height="31.51" fill="#ebc7cf"/><path d="M 94.54 252.10999999999999 A 31.51 31.51 0 0 1  126.05000000000001 220.6 L 126.05000000000001 252.10999999999999" fill="#c7d4b2"/><rect x="126.05714285714286" y="189.0857142857143" width="63.02857142857143" height="63.02857142857143" fill="#ffffff"/><rect x="126.06" y="189.09" width="31.51" height="31.51" fill="#e0e7d4"/><path d="M 126.06 220.6 A 31.51 31.51 0 0 1  157.57 189.09 L 157.57 220.6" fill="#b4c597"/><rect x="157.57" y="189.09" width="31.51" height="31.51" fill="#f5e2e6"/><path d="M 157.57 189.09 A 31.51 31.51 0 0 0 189.07999999999998 220.6 L 189.07999999999998 189.09" fill="#d48798"/><rect x="126.06" y="220.6" width="31.51" height="31.51" fill="#eef2e8"/><path d="M 126.06 220.6 A 31.51 31.51 0 0 1  157.57 252.10999999999999 L 126.06 220.6 A 31.51 31.51 0 0 0 157.57 252.10999999999999" fill="#d07d8f"/><rect x="157.57" y="220.6" width="31.51" height="31.51" fill="#b2c495"/><path d="M 157.57 220.6 A 31.51 31.51 0 0 0 189.07999999999998 252.10999999999999 L 189.07999999999998 220.6" fill="#d38597"/><rect x="189.09" y="189.09" width="63.03" height="63.03" fill="#d1dcbf"/><path d="M 189.09 252.12 A 63.03 63.03 0 0 0 252.12 189.09 L 189.09 189.09" fill="#f5e2e7"/><rect x="252.11" y="189.09" width="63.03" height="63.03" fill="#a3b981"/><path d="M 252.11 252.12 A 63.03 63.03 0 0 1  315.14 189.09 L 252.11 252.12 A 63.03 63.03 0 0 0 315.14 189.09" fill="#d6dfc6"/><rect x="315.14285714285717" y="189.0857142857143" width="63.02857142857143" height="63.02857142857143" fill="#ffffff"/><rect x="315.14" y="189.09" width="31.51" height="31.51" fill="#d78f9f"/><path d="M 315.14 189.09 A 31.51 31.51 0 0 1 346.65 220.6 L 315.14 220.6" fill="#dfa5b2"/><rect x="346.66" y="189.09" width="31.51" height="31.51" fill="#eed0d7"/><path d="M 346.66 220.6 A 31.51 31.51 0 0 1  378.17 189.09 L 346.66 220.6 A 31.51 31.51 0 0 0 378.17 189.09" fill="#cfdabd"/><rect x="315.14" y="220.6" width="31.51" height="31.51" fill="#eac6ce"/><path d="M 315.14 252.10999999999999 A 31.51 31.51 0 0 1  346.65 220.6 L 346.65 252.10999999999999" fill="#f9eef0"/><rect x="346.66" y="220.6" width="31.51" height="31.51" fill="#bccba2"/><path d="M 346.66 252.10999999999999 A 31.51 31.51 0 0 1  378.17 220.6 L 378.17 252.10999999999999" fill="#f2f5ec"/><rect x="378.17" y="189.09" width="63.03" height="63.03" fill="#c6d4b1"/><path d="M 378.17 189.09 A 63.03 63.03 0 0 1  441.20000000000005 252.12 L 378.17 189.09 A 63.03 63.03 0 0 0 441.20000000000005 252.12" fill="#fefdfe"/><rect x="441.20000000000005" y="189.0857142857143" width="63.02857142857143" height="63.02857142857143" fill="#ffffff"/><rect x="441.2" y="189.09" width="31.51" height="31.51" fill="#e6b9c3"/><path d="M 441.2 189.09 A 31.51 31.51 0 0 1  472.71 220.6 L 441.2 189.09 A 31.51 31.51 0 0 0 472.71 220.6" fill="#bdcca3"/><rect x="472.71" y="189.09" width="31.51" height="31.51" fill="#e7bdc6"/><path d="M 472.71 220.6 A 31.51 31.51 0 0 1  504.21999999999997 189.09 L 472.71 220.6 A 31.51 31.51 0 0 0 504.21999999999997 189.09" fill="#faf0f2"/><rect x="441.2" y="220.6" width="31.51" height="31.51" fill="#dfa6b3"/><path d="M 441.2 220.6 A 31.51 31.51 0 0 1  472.71 252.10999999999999 L 441.2 220.6 A 31.51 31.51 0 0 0 472.71 252.10999999999999" fill="#e2aeba"/><rect x="472.71" y="220.6" width="31.51" height="31.51" fill="#d48698"/><path d="M 472.71 220.6 A 31.51 31.51 0 0 1 504.21999999999997 252.10999999999999 L 472.71 252.10999999999999" fill="#acbf8d"/><rect x="504.23" y="189.09" width="63.03" height="63.03" fill="#d28294"/><path d="M 504.23 189.09 A 63.03 63.03 0 0 1 567.26 252.12 L 504.23 252.12" fill="#d17f92"/><rect x="567.26" y="189.09" width="63.03" height="63.03" fill="#f6f8f3"/><path d="M 567.26 189.09 A 63.03 63.03 0 0 1  630.29 252.12 L 567.26 189.09 A 63.03 63.03 0 0 0 630.29 252.12" fill="#f6f8f2"/><rect x="630.2857142857143" y="189.0857142857143" width="63.02857142857143" height="63.02857142857143" fill="#ffffff"/><rect x="630.29" y="189.09" width="31.51" height="31.51" fill="#a7bb85"/><path d="M 630.29 220.6 A 31.51 31.51 0 0 0 661.8 189.09 L 630.29 189.09" fill="#b1c394"/><rect x="661.8" y="189.09" width="31.51" height="31.51" fill="#bccca3"/><path d="M 661.8 189.09 A 31.51 31.51 0 0 1 693.31 220.6 L 661.8 220.6" fill="#d17e91"/><rect x="630.29" y="220.6" width="31.51" height="31.51" fill="#bacaa0"/><path d="M 630.29 252.10999999999999 A 31.51 31.51 0 0 1  661.8 220.6 L 661.8 252.10999999999999" fill="#dae2cb"/><rect x="661.8" y="220.6" width="31.51" height="31.51" fill="#a4b982"/><path d="M 661.8 220.6 A 31.51 31.51 0 0 1 693.31 252.10999999999999 L 661.8 252.10999999999999" fill="#ebf0e4"/><rect x="693.31" y="189.09" width="63.03" height="63.03" fill="#eef2e8"/><path d="M 693.31 189.09 A 63.03 63.03 0 0 1 756.3399999999999 252.12 L 693.31 252.12" fill="#c4d1ad"/><rect x="756.3428571428572" y="189.0857142857143" width="63.02857142857143" height="63.02857142857143" fill="#ffffff"/><rect x="756.34" y="189.09" width="31.51" height="31.51" fill="#b9c99f"/><path d="M 756.34 189.09 A 31.51 31.51 0 0 0 787.85 220.6 L 787.85 189.09" fill="#e7edde"/><rect x="787.86" y="189.09" width="31.51" height="31.51" fill="#eaefe2"/><path d="M 787.86 220.6 A 31.51 31.51 0 0 1  819.37 189.09 L 787.86 220.6 A 31.51 31.51 0 0 0 819.37 189.09" fill="#b3c496"/><rect x="756.34" y="220.6" width="31.51" height="31.51" fill="#edf1e6"/><path d="M 756.34 220.6 A 31.51 31.51 0 0 1  787.85 252.10999999999999 L 756.34 220.6 A 31.51 31.51 0 0 0 787.85 252.10999999999999" fill="#e9c2cb"/><rect x="787.86" y="220.6" width="31.51" height="31.51" fill="#db9aa9"/><path d="M 787.86 252.10999999999999 A 31.51 31.51 0 0 1  819.37 220.6 L 787.86 252.10999999999999 A 31.51 31.51 0 0 0 819.37 220.6" fill="#d994a3"/><rect x="0" y="252.11428571428573" width="63.02857142857143" height="63.02857142857143" fill="#ffffff"/><rect x="0" y="252.11" width="31.51" height="31.51" fill="#c7d4b1"/><path d="M 0 283.62 A 31.51 31.51 0 0 0 31.51 252.11 L 0 252.11" fill="#ccd8b8"/><rect x="31.51" y="252.11" width="31.51" height="31.51" fill="#e8bec7"/><path d="M 31.51 283.62 A 31.51 31.51 0 0 1  63.02 252.11 L 31.51 283.62 A 31.51 31.51 0 0 0 63.02 252.11" fill="#c6d3b0"/><rect x="0" y="283.63" width="31.51" height="31.51" fill="#f5e3e7"/><path d="M 0 283.63 A 31.51 31.51 0 0 0 31.51 315.14 L 31.51 283.63" fill="#f3f6ef"/><rect x="31.51" y="283.63" width="31.51" height="31.51" fill="#afc190"/><path d="M 31.51 283.63 A 31.51 31.51 0 0 1  63.02 315.14 L 31.51 283.63 A 31.51 31.51 0 0 0 63.02 315.14" fill="#ecc9d1"/><rect x="63.02857142857143" y="252.11428571428573" width="63.02857142857143" height="63.02857142857143" fill="#ffffff"/><rect x="63.03" y="252.11" width="31.51" height="31.51" fill="#ecf1e5"/><path d="M 63.03 252.11 A 31.51 31.51 0 0 1 94.54 283.62 L 63.03 283.62" fill="#e9c1ca"/><rect x="94.54" y="252.11" width="31.51" height="31.51" fill="#d7e0c8"/><path d="M 94.54 252.11 A 31.51 31.51 0 0 1  126.05000000000001 283.62 L 94.54 252.11 A 31.51 31.51 0 0 0 126.05000000000001 283.62" fill="#d9e2ca"/><rect x="63.03" y="283.63" width="31.51" height="31.51" fill="#a9bd89"/><path d="M 63.03 315.14 A 31.51 31.51 0 0 1  94.54 283.63 L 63.03 315.14 A 31.51 31.51 0 0 0 94.54 283.63" fill="#f5f8f2"/><rect x="94.54" y="283.63" width="31.51" height="31.51" fill="#e1e8d5"/><path d="M 94.54 315.14 A 31.51 31.51 0 0 1  126.05000000000001 283.63 L 94.54 315.14 A 31.51 31.51 0 0 0 126.05000000000001 283.63" fill="#d2dcc1"/><rect x="126.06" y="252.11" width="63.03" height="63.03" fill="#fcfcfa"/><path d="M 126.06 315.14 A 63.03 63.03 0 0 0 189.09 252.11 L 126.06 252.11" fill="#e1e8d6"/><rect x="189.09" y="252.11" width="63.03" height="63.03" fill="#a6bb85"/><path d="M 189.09 252.11 A 63.03 63.03 0 0 0 252.12 315.14 L 252.12 252.11" fill="#b6c79a"/><rect x="252.11" y="252.11" width="63.03" height="63.03" fill="#bdcca4"/><path d="M 252.11 315.14 A 63.03 63.03 0 0 1  315.14 252.11 L 252.11 315.14 A 63.03 63.03 0 0 0 315.14 252.11" fill="#f4e0e5"/><rect x="315.14285714285717" y="252.11428571428573" width="63.02857142857143" height="63.02857142857143" fill="#ffffff"/><rect x="315.14" y="252.11" width="31.51" height="31.51" fill="#e1e8d5"/><path d="M 315.14 283.62 A 31.51 31.51 0 0 1  346.65 252.11 L 315.14 283.62 A 31.51 31.51 0 0 0 346.65 252.11" fill="#d28093"/><rect x="346.66" y="252.11" width="31.51" height="31.51" fill="#faf2f4"/><path d="M 346.66 283.62 A 31.51 31.51 0 0 0 378.17 252.11 L 346.66 252.11" fill="#e1acb8"/><rect x="315.14" y="283.63" width="31.51" height="31.51" fill="#f8eaed"/><path d="M 315.14 315.14 A 31.51 31.51 0 0 0 346.65 283.63 L 315.14 283.63" fill="#e6b9c3"/><rect x="346.66" y="283.63" width="31.51" height="31.51" fill="#d7e0c8"/><path d="M 346.66 283.63 A 31.51 31.51 0 0 1  378.17 315.14 L 346.66 283.63 A 31.51 31.51 0 0 0 378.17 315.14" fill="#eccad2"/><rect x="378.1714285714286" y="252.11428571428573" width="63.02857142857143" height="63.02857142857143" fill="#ffffff"/><rect x="378.17" y="252.11" width="31.51" height="31.51" fill="#e9c1ca"/><path d="M 378.17 283.62 A 31.51 31.51 0 0 1  409.68 252.11 L 378.17 283.62 A 31.51 31.51 0 0 0 409.68 252.11" fill="#a2b87f"/><rect x="409.69" y="252.11" width="31.51" height="31.51" fill="#d68d9e"/><path d="M 409.69 252.11 A 31.51 31.51 0 0 1  441.2 283.62 L 409.69 252.11 A 31.51 31.51 0 0 0 441.2 283.62" fill="#f2f5ed"/><rect x="378.17" y="283.63" width="31.51" height="31.51" fill="#e0a8b5"/><path d="M 378.17 315.14 A 31.51 31.51 0 0 1  409.68 283.63 L 378.17 315.14 A 31.51 31.51 0 0 0 409.68 283.63" fill="#d28193"/><rect x="409.69" y="283.63" width="31.51" height="31.51" fill="#fffefe"/><path d="M 409.69 283.63 A 31.51 31.51 0 0 0 441.2 315.14 L 441.2 283.63" fill="#e5ebdb"/><rect x="441.2" y="252.11" width="63.03" height="63.03" fill="#b9c99e"/><path d="M 441.2 315.14 A 63.03 63.03 0 0 0 504.23 252.11 L 441.2 252.11" fill="#d4889a"/><rect x="504.23" y="252.11" width="63.03" height="63.03" fill="#c9d5b4"/><path d="M 504.23 315.14 A 63.03 63.03 0 0 1  567.26 252.11 L 504.23 315.14 A 63.03 63.03 0 0 0 567.26 252.11" fill="#c0cfa8"/><rect x="567.26" y="252.11" width="63.03" height="63.03" fill="#f9eff2"/><path d="M 567.26 315.14 A 63.03 63.03 0 0 1  630.29 252.11 L 567.26 315.14 A 63.03 63.03 0 0 0 630.29 252.11" fill="#db9aa9"/><rect x="630.2857142857143" y="252.11428571428573" width="63.02857142857143" height="63.02857142857143" fill="#ffffff"/><rect x="630.29" y="252.11" width="31.51" height="31.51" fill="#efd2d9"/><path d="M 630.29 252.11 A 31.51 31.51 0 0 0 661.8 283.62 L 661.8 252.11" fill="#e1e8d6"/><rect x="661.8" y="252.11" width="31.51" height="31.51" fill="#efd4da"/><path d="M 661.8 283.62 A 31.51 31.51 0 0 1  693.31 252.11 L 661.8 283.62 A 31.51 31.51 0 0 0 693.31 252.11" fill="#e4b3be"/><rect x="630.29" y="283.63" width="31.51" height="31.51" fill="#bacaa0"/><path d="M 630.29 315.14 A 31.51 31.51 0 0 0 661.8 283.63 L 630.29 283.63" fill="#f4f7f1"/><rect x="661.8" y="283.63" width="31.51" height="31.51" fill="#e0aab6"/><path d="M 661.8 315.14 A 31.51 31.51 0 0 1  693.31 283.63 L 693.31 315.14" fill="#f2f5ec"/><rect x="693.31" y="252.11" width="63.03" height="63.03" fill="#e4b4bf"/><path d="M 693.31 252.11 A 63.03 63.03 0 0 1  756.3399999999999 315.14 L 693.31 252.11 A 63.03 63.03 0 0 0 756.3399999999999 315.14" fill="#bbcba2"/><rect x="756.3428571428572" y="252.11428571428573" width="63.02857142857143" height="63.02857142857143" fill="#ffffff"/><rect x="756.34" y="252.11" width="31.51" height="31.51" fill="#e2afba"/><path d="M 756.34 252.11 A 31.51 31.51 0 0 1  787.85 283.62 L 756.34 252.11 A 31.51 31.51 0 0 0 787.85 283.62" fill="#d5dfc6"/><rect x="787.86" y="252.11" width="31.51" height="31.51" fill="#b0c292"/><path d="M 787.86 283.62 A 31.51 31.51 0 0 1  819.37 252.11 L 819.37 283.62" fill="#eac5ce"/><rect x="756.34" y="283.63" width="31.51" height="31.51" fill="#b6c79b"/><path d="M 756.34 315.14 A 31.51 31.51 0 0 0 787.85 283.63 L 756.34 283.63" fill="#c4d2ae"/><rect x="787.86" y="283.63" width="31.51" height="31.51" fill="#cbd7b7"/><path d="M 787.86 315.14 A 31.51 31.51 0 0 1  819.37 283.63 L 787.86 315.14 A 31.51 31.51 0 0 0 819.37 283.63" fill="#ffffff"/><rect x="0" y="315.14285714285717" width="63.02857142857143" height="63.02857142857143" fill="#ffffff"/><rect x="0" y="315.14" width="31.51" height="31.51" fill="#f9faf6"/><path d="M 0 346.65 A 31.51 31.51 0 0 0 31.51 315.14 L 0 315.14" fill="#e0a8b4"/><rect x="31.51" y="315.14" width="31.51" height="31.51" fill="#ffffff"/><path d="M 31.51 315.14 A 31.51 31.51 0 0 0 63.02 346.65 L 63.02 315.14" fill="#fefbfc"/><rect x="0" y="346.66" width="31.51" height="31.51" fill="#fbf5f6"/><path d="M 0 378.17 A 31.51 31.51 0 0 1  31.51 346.66 L 31.51 378.17" fill="#dfa7b4"/><rect x="31.51" y="346.66" width="31.51" height="31.51" fill="#f5f7f1"/><path d="M 31.51 378.17 A 31.51 31.51 0 0 1  63.02 346.66 L 31.51 378.17 A 31.51 31.51 0 0 0 63.02 346.66" fill="#ccd7b8"/><rect x="63.03" y="315.14" width="63.03" height="63.03" fill="#dc9dab"/><path d="M 63.03 315.14 A 63.03 63.03 0 0 1  126.06 378.16999999999996 L 63.03 315.14 A 63.03 63.03 0 0 0 126.06 378.16999999999996" fill="#e2afba"/><rect x="126.06" y="315.14" width="63.03" height="63.03" fill="#f7f9f3"/><path d="M 126.06 315.14 A 63.03 63.03 0 0 1  189.09 378.16999999999996 L 126.06 315.14 A 63.03 63.03 0 0 0 189.09 378.16999999999996" fill="#bbcba1"/><rect x="189.09" y="315.14" width="63.03" height="63.03" fill="#fefffe"/><path d="M 189.09 315.14 A 63.03 63.03 0 0 1  252.12 378.16999999999996 L 189.09 315.14 A 63.03 63.03 0 0 0 252.12 378.16999999999996" fill="#d58a9b"/><rect x="252.11" y="315.14" width="63.03" height="63.03" fill="#e8bfc9"/><path d="M 252.11 315.14 A 63.03 63.03 0 0 0 315.14 378.16999999999996 L 315.14 315.14" fill="#e3b2bd"/><rect x="315.14" y="315.14" width="63.03" height="63.03" fill="#d58b9c"/><path d="M 315.14 315.14 A 63.03 63.03 0 0 0 378.16999999999996 378.16999999999996 L 378.16999999999996 315.14" fill="#edced5"/><rect x="378.17" y="315.14" width="63.03" height="63.03" fill="#f9edf0"/><path d="M 378.17 378.16999999999996 A 63.03 63.03 0 0 1  441.20000000000005 315.14 L 378.17 378.16999999999996 A 63.03 63.03 0 0 0 441.20000000000005 315.14" fill="#cfdabd"/><rect x="441.2" y="315.14" width="63.03" height="63.03" fill="#dc9eac"/><path d="M 441.2 378.16999999999996 A 63.03 63.03 0 0 1  504.23 315.14 L 441.2 378.16999999999996 A 63.03 63.03 0 0 0 504.23 315.14" fill="#d38597"/><rect x="504.23" y="315.14" width="63.03" height="63.03" fill="#a9bd88"/><path d="M 504.23 315.14 A 63.03 63.03 0 0 1  567.26 378.16999999999996 L 504.23 315.14 A 63.03 63.03 0 0 0 567.26 378.16999999999996" fill="#dbe3cd"/><rect x="567.26" y="315.14" width="63.03" height="63.03" fill="#d6e0c7"/><path d="M 567.26 378.16999999999996 A 63.03 63.03 0 0 0 630.29 315.14 L 567.26 315.14" fill="#d17f91"/><rect x="630.2857142857143" y="315.14285714285717" width="63.02857142857143" height="63.02857142857143" fill="#ffffff"/><rect x="630.29" y="315.14" width="31.51" height="31.51" fill="#dee6d1"/><path d="M 630.29 346.65 A 31.51 31.51 0 0 0 661.8 315.14 L 630.29 315.14" fill="#f2f5ec"/><rect x="661.8" y="315.14" width="31.51" height="31.51" fill="#d4889a"/><path d="M 661.8 315.14 A 31.51 31.51 0 0 1 693.31 346.65 L 661.8 346.65" fill="#f6f8f3"/><rect x="630.29" y="346.66" width="31.51" height="31.51" fill="#e7bcc6"/><path d="M 630.29 346.66 A 31.51 31.51 0 0 1  661.8 378.17 L 630.29 346.66 A 31.51 31.51 0 0 0 661.8 378.17" fill="#e4b3be"/><rect x="661.8" y="346.66" width="31.51" height="31.51" fill="#d9e2cb"/><path d="M 661.8 346.66 A 31.51 31.51 0 0 1  693.31 378.17 L 661.8 346.66 A 31.51 31.51 0 0 0 693.31 378.17" fill="#f2dce1"/><rect x="693.3142857142858" y="315.14285714285717" width="63.02857142857143" height="63.02857142857143" fill="#ffffff"/><rect x="693.31" y="315.14" width="31.51" height="31.51" fill="#aec190"/><path d="M 693.31 346.65 A 31.51 31.51 0 0 1  724.8199999999999 315.14 L 724.8199999999999 346.65" fill="#b8c99e"/><rect x="724.83" y="315.14" width="31.51" height="31.51" fill="#bacaa0"/><path d="M 724.83 346.65 A 31.51 31.51 0 0 0 756.34 315.14 L 724.83 315.14" fill="#d17f92"/><rect x="693.31" y="346.66" width="31.51" height="31.51" fill="#eff3e9"/><path d="M 693.31 378.17 A 31.51 31.51 0 0 1  724.8199999999999 346.66 L 724.8199999999999 378.17" fill="#d996a5"/><rect x="724.83" y="346.66" width="31.51" height="31.51" fill="#fcf7f8"/><path d="M 724.83 378.17 A 31.51 31.51 0 0 1  756.34 346.66 L 756.34 378.17" fill="#d4dec3"/><rect x="756.34" y="315.14" width="63.03" height="63.03" fill="#d17f92"/><path d="M 756.34 378.16999999999996 A 63.03 63.03 0 0 1  819.37 315.14 L 819.37 378.16999999999996" fill="#edf1e7"/><rect x="0" y="378.1714285714286" width="63.02857142857143" height="63.02857142857143" fill="#ffffff"/><rect x="0" y="378.17" width="31.51" height="31.51" fill="#e4b3be"/><path d="M 0 409.68 A 31.51 31.51 0 0 1  31.51 378.17 L 0 409.68 A 31.51 31.51 0 0 0 31.51 378.17" fill="#da97a6"/><rect x="31.51" y="378.17" width="31.51" height="31.51" fill="#dc9dac"/><path d="M 31.51 409.68 A 31.51 31.51 0 0 1  63.02 378.17 L 31.51 409.68 A 31.51 31.51 0 0 0 63.02 378.17" fill="#b0c393"/><rect x="0" y="409.69" width="31.51" height="31.51" fill="#dce4ce"/><path d="M 0 441.2 A 31.51 31.51 0 0 1  31.51 409.69 L 31.51 441.2" fill="#edf1e7"/><rect x="31.51" y="409.69" width="31.51" height="31.51" fill="#ebf0e4"/><path d="M 31.51 409.69 A 31.51 31.51 0 0 1 63.02 441.2 L 31.51 441.2" fill="#c9d5b4"/><rect x="63.03" y="378.17" width="63.03" height="63.03" fill="#f1f4ec"/><path d="M 63.03 378.17 A 63.03 63.03 0 0 1  126.06 441.20000000000005 L 63.03 378.17 A 63.03 63.03 0 0 0 126.06 441.20000000000005" fill="#b7c89b"/><rect x="126.05714285714286" y="378.1714285714286" width="63.02857142857143" height="63.02857142857143" fill="#ffffff"/><rect x="126.06" y="378.17" width="31.51" height="31.51" fill="#db9aa8"/><path d="M 126.06 378.17 A 31.51 31.51 0 0 1 157.57 409.68 L 126.06 409.68" fill="#f1f4ec"/><rect x="157.57" y="378.17" width="31.51" height="31.51" fill="#c7d4b1"/><path d="M 157.57 409.68 A 31.51 31.51 0 0 0 189.07999999999998 378.17 L 157.57 378.17" fill="#fdfefc"/><rect x="126.06" y="409.69" width="31.51" height="31.51" fill="#dea4b1"/><path d="M 126.06 409.69 A 31.51 31.51 0 0 0 157.57 441.2 L 157.57 409.69" fill="#b5c69a"/><rect x="157.57" y="409.69" width="31.51" height="31.51" fill="#ebf0e4"/><path d="M 157.57 441.2 A 31.51 31.51 0 0 1  189.07999999999998 409.69 L 157.57 441.2 A 31.51 31.51 0 0 0 189.07999999999998 409.69" fill="#db9aa9"/><rect x="189.0857142857143" y="378.1714285714286" width="63.02857142857143" height="63.02857142857143" fill="#ffffff"/><rect x="189.09" y="378.17" width="31.51" height="31.51" fill="#eccad1"/><path d="M 189.09 378.17 A 31.51 31.51 0 0 1  220.6 409.68 L 189.09 378.17 A 31.51 31.51 0 0 0 220.6 409.68" fill="#e9eee1"/><rect x="220.6" y="378.17" width="31.51" height="31.51" fill="#fbf5f6"/><path d="M 220.6 409.68 A 31.51 31.51 0 0 1  252.10999999999999 378.17 L 252.10999999999999 409.68" fill="#e1abb7"/><rect x="189.09" y="409.69" width="31.51" height="31.51" fill="#eef2e8"/><path d="M 189.09 441.2 A 31.51 31.51 0 0 0 220.6 409.69 L 189.09 409.69" fill="#aec18f"/><rect x="220.6" y="409.69" width="31.51" height="31.51" fill="#f9fbf7"/><path d="M 220.6 441.2 A 31.51 31.51 0 0 1  252.10999999999999 409.69 L 252.10999999999999 441.2" fill="#d17f91"/><rect x="252.11428571428573" y="378.1714285714286" width="63.02857142857143" height="63.02857142857143" fill="#ffffff"/><rect x="252.11" y="378.17" width="31.51" height="31.51" fill="#eef2e7"/><path d="M 252.11 409.68 A 31.51 31.51 0 0 0 283.62 378.17 L 252.11 378.17" fill="#e6bac4"/><rect x="283.63" y="378.17" width="31.51" height="31.51" fill="#d38496"/><path d="M 283.63 409.68 A 31.51 31.51 0 0 1  315.14 378.17 L 283.63 409.68 A 31.51 31.51 0 0 0 315.14 378.17" fill="#d5dfc5"/><rect x="252.11" y="409.69" width="31.51" height="31.51" fill="#e6b9c3"/><path d="M 252.11 409.69 A 31.51 31.51 0 0 0 283.62 441.2 L 283.62 409.69" fill="#d0dbbe"/><rect x="283.63" y="409.69" width="31.51" height="31.51" fill="#efd4da"/><path d="M 283.63 409.69 A 31.51 31.51 0 0 1 315.14 441.2 L 283.63 441.2" fill="#d17f91"/><rect x="315.14" y="378.17" width="63.03" height="63.03" fill="#da98a7"/><path d="M 315.14 378.17 A 63.03 63.03 0 0 1 378.16999999999996 441.20000000000005 L 315.14 441.20000000000005" fill="#b2c494"/><rect x="378.1714285714286" y="378.1714285714286" width="63.02857142857143" height="63.02857142857143" fill="#ffffff"/><rect x="378.17" y="378.17" width="31.51" height="31.51" fill="#b9c99e"/><path d="M 378.17 378.17 A 31.51 31.51 0 0 1 409.68 409.68 L 378.17 409.68" fill="#e9c0ca"/><rect x="409.69" y="378.17" width="31.51" height="31.51" fill="#d892a2"/><path d="M 409.69 409.68 A 31.51 31.51 0 0 1  441.2 378.17 L 409.69 409.68 A 31.51 31.51 0 0 0 441.2 378.17" fill="#e7edde"/><rect x="378.17" y="409.69" width="31.51" height="31.51" fill="#dae3cd"/><path d="M 378.17 409.69 A 31.51 31.51 0 0 0 409.68 441.2 L 409.68 409.69" fill="#f7f9f5"/><rect x="409.69" y="409.69" width="31.51" height="31.51" fill="#d5dfc6"/><path d="M 409.69 409.69 A 31.51 31.51 0 0 1 441.2 441.2 L 409.69 441.2" fill="#d5dfc5"/><rect x="441.20000000000005" y="378.1714285714286" width="63.02857142857143" height="63.02857142857143" fill="#ffffff"/><rect x="441.2" y="378.17" width="31.51" height="31.51" fill="#da98a7"/><path d="M 441.2 409.68 A 31.51 31.51 0 0 0 472.71 378.17 L 441.2 378.17" fill="#ebf0e4"/><rect x="472.71" y="378.17" width="31.51" height="31.51" fill="#d28395"/><path d="M 472.71 378.17 A 31.51 31.51 0 0 1  504.21999999999997 409.68 L 472.71 378.17 A 31.51 31.51 0 0 0 504.21999999999997 409.68" fill="#fafbf8"/><rect x="441.2" y="409.69" width="31.51" height="31.51" fill="#f3dfe3"/><path d="M 441.2 409.69 A 31.51 31.51 0 0 1  472.71 441.2 L 441.2 409.69 A 31.51 31.51 0 0 0 472.71 441.2" fill="#dea4b1"/><rect x="472.71" y="409.69" width="31.51" height="31.51" fill="#e0a8b4"/><path d="M 472.71 441.2 A 31.51 31.51 0 0 1  504.21999999999997 409.69 L 472.71 441.2 A 31.51 31.51 0 0 0 504.21999999999997 409.69" fill="#e1e8d6"/><rect x="504.22857142857146" y="378.1714285714286" width="63.02857142857143" height="63.02857142857143" fill="#ffffff"/><rect x="504.23" y="378.17" width="31.51" height="31.51" fill="#adc08e"/><path d="M 504.23 378.17 A 31.51 31.51 0 0 1  535.74 409.68 L 504.23 378.17 A 31.51 31.51 0 0 0 535.74 409.68" fill="#f7e9ec"/><rect x="535.74" y="378.17" width="31.51" height="31.51" fill="#cad6b6"/><path d="M 535.74 409.68 A 31.51 31.51 0 0 0 567.25 378.17 L 535.74 378.17" fill="#fcf6f7"/><rect x="504.23" y="409.69" width="31.51" height="31.51" fill="#e4ead9"/><path d="M 504.23 409.69 A 31.51 31.51 0 0 1 535.74 441.2 L 504.23 441.2" fill="#e8bfc8"/><rect x="535.74" y="409.69" width="31.51" height="31.51" fill="#fcfdfb"/><path d="M 535.74 409.69 A 31.51 31.51 0 0 1  567.25 441.2 L 535.74 409.69 A 31.51 31.51 0 0 0 567.25 441.2" fill="#e6ecdd"/><rect x="567.2571428571429" y="378.1714285714286" width="63.02857142857143" height="63.02857142857143" fill="#ffffff"/><rect x="567.26" y="378.17" width="31.51" height="31.51" fill="#b4c698"/><path d="M 567.26 409.68 A 31.51 31.51 0 0 1  598.77 378.17 L 567.26 409.68 A 31.51 31.51 0 0 0 598.77 378.17" fill="#edccd4"/><rect x="598.77" y="378.17" width="31.51" height="31.51" fill="#c8d5b3"/><path d="M 598.77 378.17 A 31.51 31.51 0 0 1 630.28 409.68 L 598.77 409.68" fill="#d68d9e"/><rect x="567.26" y="409.69" width="31.51" height="31.51" fill="#d790a0"/><path d="M 567.26 441.2 A 31.51 31.51 0 0 0 598.77 409.69 L 567.26 409.69" fill="#f0d5db"/><rect x="598.77" y="409.69" width="31.51" height="31.51" fill="#b5c699"/><path d="M 598.77 409.69 A 31.51 31.51 0 0 1 630.28 441.2 L 598.77 441.2" fill="#f1d9df"/><rect x="630.2857142857143" y="378.1714285714286" width="63.02857142857143" height="63.02857142857143" fill="#ffffff"/><rect x="630.29" y="378.17" width="31.51" height="31.51" fill="#e9eee1"/><path d="M 630.29 378.17 A 31.51 31.51 0 0 0 661.8 409.68 L 661.8 378.17" fill="#f7eaed"/><rect x="661.8" y="378.17" width="31.51" height="31.51" fill="#e6ecdd"/><path d="M 661.8 409.68 A 31.51 31.51 0 0 1  693.31 378.17 L 693.31 409.68" fill="#d791a1"/><rect x="630.29" y="409.69" width="31.51" height="31.51" fill="#f6e5e9"/><path d="M 630.29 441.2 A 31.51 31.51 0 0 1  661.8 409.69 L 661.8 441.2" fill="#edccd4"/><rect x="661.8" y="409.69" width="31.51" height="31.51" fill="#da97a6"/><path d="M 661.8 441.2 A 31.51 31.51 0 0 0 693.31 409.69 L 661.8 409.69" fill="#e0a9b5"/><rect x="693.3142857142858" y="378.1714285714286" width="63.02857142857143" height="63.02857142857143" fill="#ffffff"/><rect x="693.31" y="378.17" width="31.51" height="31.51" fill="#e4b3be"/><path d="M 693.31 409.68 A 31.51 31.51 0 0 1  724.8199999999999 378.17 L 724.8199999999999 409.68" fill="#a4b981"/><rect x="724.83" y="378.17" width="31.51" height="31.51" fill="#eac5ce"/><path d="M 724.83 409.68 A 31.51 31.51 0 0 1  756.34 378.17 L 756.34 409.68" fill="#d48798"/><rect x="693.31" y="409.69" width="31.51" height="31.51" fill="#a4b981"/><path d="M 693.31 409.69 A 31.51 31.51 0 0 1  724.8199999999999 441.2 L 693.31 409.69 A 31.51 31.51 0 0 0 724.8199999999999 441.2" fill="#dfe7d3"/><rect x="724.83" y="409.69" width="31.51" height="31.51" fill="#db9ba9"/><path d="M 724.83 441.2 A 31.51 31.51 0 0 0 756.34 409.69 L 724.83 409.69" fill="#dfa5b2"/><rect x="756.34" y="378.17" width="63.03" height="63.03" fill="#e2aeba"/><path d="M 756.34 378.17 A 63.03 63.03 0 0 0 819.37 441.20000000000005 L 819.37 378.17" fill="#db9caa"/></g></svg>