<?xml version="1.0" standalone="no"?><svg xmlns:xlink="http://www.w3.org/1999/xlink" xmlns="http://www.w3.org/2000/svg" viewBox="0 0 1000 583.3278244199114" preserveAspectRatio="xMaxYMax slice"><g transform="scale(1.3221392212599987)"><rect x="0" y="0" width="819.3714285714286" height="441.20000000000005" fill="#ffffff"/><rect x="0" y="0" width="63.02857142857143" height="63.02857142857143" fill="#ffffff"/><rect x="0" y="0" width="31.51" height="31.51" fill="#2349e2"/><polygon points="31.51,0 31.51,31.51 0,31.51" fill="#ff7495"/><rect x="31.51" y="0" width="31.51" height="31.51" fill="#a4b3f3"/><polygon points="31.51,0 63.02,31.51 31.51,31.51" fill="#ff9eb5"/><rect x="0" y="31.51" width="31.51" height="31.51" fill="#ff3968"/><polygon points="0,31.51 31.51,31.51 0,63.02" fill="#738bed"/><rect x="31.51" y="31.51" width="31.51" height="31.51" fill="#ffbaca"/><polygon points="31.51,31.51 63.02,31.51 63.02,63.02" fill="#ff96af"/><rect x="63.02857142857143" y="0" width="63.02857142857143" height="63.02857142857143" fill="#ffffff"/><rect x="63.03" y="0" width="31.51" height="31.51" fill="#ff3f6d"/><polygon points="94.54,0 94.54,31.51 63.03,31.51" fill="#e3e8fb"/><rect x="94.54" y="0" width="31.51" height="31.51" fill="#1a41e1"/><polygon points="94.54,0 126.05000000000001,0 94.54,31.51" fill="#ff5a81"/><rect x="63.03" y="31.51" width="31.51" height="31.51" fill="#ffd6df"/><polygon points="63.03,31.51 94.54,31.51 94.54,63.02" fill="#cbd4f8"/><rect x="94.54" y="31.51" width="31.51" height="31.51" fill="#ff84a1"/><polygon points="94.54,31.51 126.05000000000001,63.02 94.54,63.02" fill="#637deb"/><rect x="126.05714285714286" y="0" width="63.02857142857143" height="63.02857142857143" fill="#ffffff"/><rect x="126.06" y="0" width="31.51" height="31.51" fill="#4161e6"/><path d="M 126.06 31.51 A 31.51 31.51 0 0 1 157.57 0 L 157.57 7.8775 A 23.6325 23.6325 0 0 0 133.9375 31.51" fill="#ffa9bd"/><rect x="157.57" y="0" width="31.51" height="31.51" fill="#ffd8e2"/><path d="M 157.57 0 A 31.51 31.51 0 0 1 189.07999999999998 31.51 L 181.2025 31.51 A 23.6325 23.6325 0 0 0 157.57 7.8775" fill="#ffd2dd"/><rect x="126.06" y="31.51" width="31.51" height="31.51" fill="#ffeef2"/><path d="M 126.06 31.51 A 31.51 31.51 0 0 0 157.57 63.02 L 157.57 55.1425 A 23.6325 23.6325 0 0 1 133.9375 31.51" fill="#f7f9fe"/><rect x="157.57" y="31.51" width="31.51" height="31.51" fill="#3759e5"/><path d="M 157.57 63.02 A 31.51 31.51 0 0 0 189.07999999999998 31.51 L 181.2025 31.51 A 23.6325 23.6325 0 0 1 157.57 55.1425" fill="#ffabbf"/><rect x="189.09" y="0" width="63.03" height="63.03" fill="#6a83ec"/><rect x="189.09" y="0" width="63.03" height="63.03" fill="#9cadf2"/><rect x="252.11428571428573" y="0" width="63.02857142857143" height="63.02857142857143" fill="#ffffff"/><rect x="252.11" y="0" width="31.51" height="31.51" fill="#b1bef5"/><polygon points="283.62,0 283.62,31.51 252.11,31.51" fill="#ffc5d3"/><rect x="283.63" y="0" width="31.51" height="31.51" fill="#ffb9ca"/><polygon points="283.63,0 315.14,0 283.63,31.51" fill="#ff6c8f"/><rect x="252.11" y="31.51" width="31.51" height="31.51" fill="#c6d0f8"/><polygon points="252.11,31.51 283.62,31.51 283.62,63.02" fill="#ff5880"/><rect x="283.63" y="31.51" width="31.51" height="31.51" fill="#ffa9bd"/><polygon points="283.63,31.51 315.14,63.02 283.63,63.02" fill="#ffaabe"/><rect x="315.14285714285717" y="0" width="63.02857142857143" height="63.02857142857143" fill="#ffffff"/><rect x="315.14" y="0" width="31.51" height="31.51" fill="#98a9f2"/><path d="M 315.14 0 A 31.51 31.51 0 0 1 346.65 31.51 L 315.14 31.51" fill="#ffa2b8"/><rect x="346.66" y="0" width="31.51" height="31.51" fill="#ff8ea9"/><path d="M 346.66 31.51 A 31.51 31.51 0 0 1  378.17 0 L 378.17 31.51" fill="#ff7697"/><rect x="315.14" y="31.51" width="31.51" height="31.51" fill="#a1b1f3"/><path d="M 315.14 63.02 A 31.51 31.51 0 0 0 346.65 31.51 L 315.14 31.51" fill="#f6f7fe"/><rect x="346.66" y="31.51" width="31.51" height="31.51" fill="#ff3766"/><path d="M 346.66 31.51 A 31.51 31.51 0 0 0 378.17 63.02 L 378.17 31.51" fill="#fff7f9"/><rect x="378.17" y="0" width="63.03" height="63.03" fill="#ff5e85"/><rect x="378.17" y="0" width="63.03" height="63.03" fill="#7c92ee"/><rect x="441.20000000000005" y="0" width="63.02857142857143" height="63.02857142857143" fill="#ffffff"/><rect x="441.2" y="0" width="31.51" height="31.51" fill="#ff678b"/><path d="M 441.2 31.51 A 31.51 31.51 0 0 0 472.71 0 L 441.2 0" fill="#3e5fe6"/><rect x="472.71" y="0" width="31.51" height="31.51" fill="#ffb8c9"/><path d="M 472.71 0 A 31.51 31.51 0 0 0 504.21999999999997 31.51 L 504.21999999999997 0" fill="#ff3a69"/><rect x="441.2" y="31.51" width="31.51" height="31.51" fill="#ff678b"/><path d="M 441.2 31.51 A 31.51 31.51 0 0 1 472.71 63.02 L 441.2 63.02" fill="#eef1fd"/><rect x="472.71" y="31.51" width="31.51" height="31.51" fill="#ff5d83"/><path d="M 472.71 63.02 A 31.51 31.51 0 0 1  504.21999999999997 31.51 L 504.21999999999997 63.02" fill="#e7ebfc"/><rect x="504.22857142857146" y="0" width="63.02857142857143" height="63.02857142857143" fill="#ffffff"/><rect x="504.23" y="0" width="31.51" height="31.51" fill="#3557e5"/><circle cx="519.985" cy="15.755" r="15.755" fill="#eaeefc"/><rect x="535.74" y="0" width="31.51" height="31.51" fill="#ffb5c7"/><rect x="535.74" y="0" width="31.51" height="31.51" fill="#eaeefc"/><rect x="504.23" y="31.51" width="31.51" height="31.51" fill="#9cadf2"/><circle cx="519.985" cy="47.265" r="15.755" fill="#f6f8fe"/><rect x="535.74" y="31.51" width="31.51" height="31.51" fill="#6e86ec"/><rect x="535.74" y="31.51" width="31.51" height="31.51" fill="#f2f4fd"/><rect x="567.2571428571429" y="0" width="63.02857142857143" height="63.02857142857143" fill="#ffffff"/><rect x="567.26" y="0" width="31.51" height="31.51" fill="#aebbf4"/><circle cx="583.015" cy="15.755" r="15.755" fill="#ff3968"/><rect x="598.77" y="0" width="31.51" height="31.51" fill="#627deb"/><rect x="598.77" y="0" width="31.51" height="31.51" fill="#3b5ce6"/><rect x="567.26" y="31.51" width="31.51" height="31.51" fill="#e2e7fb"/><circle cx="583.015" cy="47.265" r="15.755" fill="#ff9bb3"/><rect x="598.77" y="31.51" width="31.51" height="31.51" fill="#ff4874"/><rect x="598.77" y="31.51" width="31.51" height="31.51" fill="#526fe8"/><rect x="630.2857142857143" y="0" width="63.02857142857143" height="63.02857142857143" fill="#ffffff"/><rect x="630.29" y="0" width="31.51" height="31.51" fill="#ff6d90"/><path d="M 630.29 0 A 31.51 31.51 0 0 1 661.8 31.51 L 630.29 31.51" fill="#ffd1dc"/><rect x="661.8" y="0" width="31.51" height="31.51" fill="#ff668b"/><path d="M 661.8 31.51 A 31.51 31.51 0 0 1  693.31 0 L 693.31 31.51" fill="#fff8fa"/><rect x="630.29" y="31.51" width="31.51" height="31.51" fill="#758ced"/><path d="M 630.29 63.02 A 31.51 31.51 0 0 0 661.8 31.51 L 630.29 31.51" fill="#ff3c6a"/><rect x="661.8" y="31.51" width="31.51" height="31.51" fill="#3b5ce6"/><path d="M 661.8 31.51 A 31.51 31.51 0 0 0 693.31 63.02 L 693.31 31.51" fill="#ff6d90"/><rect x="693.31" y="0" width="63.03" height="63.03" fill="#ff96af"/><rect x="693.31" y="0" width="63.03" height="63.03" fill="#edf0fd"/><rect x="756.3428571428572" y="0" width="63.02857142857143" height="63.02857142857143" fill="#ffffff"/><rect x="756.34" y="0" width="31.51" height="31.51" fill="#7e94ee"/><path d="M 756.34 31.51 A 31.51 31.51 0 0 1  787.85 0 L 787.85 31.51" fill="#ff668b"/><rect x="787.86" y="0" width="31.51" height="31.51" fill="#ff7394"/><path d="M 787.86 0 A 31.51 31.51 0 0 1 819.37 31.51 L 787.86 31.51" fill="#fff0f4"/><rect x="756.34" y="31.51" width="31.51" height="31.51" fill="#647eeb"/><path d="M 756.34 31.51 A 31.51 31.51 0 0 0 787.85 63.02 L 787.85 31.51" fill="#ffe6ec"/><rect x="787.86" y="31.51" width="31.51" height="31.51" fill="#ff8ea9"/><path d="M 787.86 63.02 A 31.51 31.51 0 0 0 819.37 31.51 L 787.86 31.51" fill="#4d6be8"/><rect x="0" y="63.02857142857143" width="63.02857142857143" height="63.02857142857143" fill="#ffffff"/><rect x="0" y="63.03" width="31.51" height="31.51" fill="#768ded"/><path d="M 0 94.54 A 31.51 31.51 0 0 1  31.51 63.03 L 31.51 94.54" fill="#ff89a5"/><rect x="31.51" y="63.03" width="31.51" height="31.51" fill="#ff4370"/><path d="M 31.51 63.03 A 31.51 31.51 0 0 1 63.02 94.54 L 31.51 94.54" fill="#ff577f"/><rect x="0" y="94.54" width="31.51" height="31.51" fill="#ff6287"/><path d="M 0 94.54 A 31.51 31.51 0 0 0 31.51 126.05000000000001 L 31.51 94.54" fill="#e7ebfc"/><rect x="31.51" y="94.54" width="31.51" height="31.51" fill="#7f95ee"/><path d="M 31.51 126.05000000000001 A 31.51 31.51 0 0 0 63.02 94.54 L 31.51 94.54" fill="#ffe2e9"/><rect x="63.03" y="63.03" width="63.03" height="63.03" fill="#ff567e"/><polygon points="63.03,63.03 126.06,63.03 126.06,126.06" fill="#ffebef"/><rect x="126.05714285714286" y="63.02857142857143" width="63.02857142857143" height="63.02857142857143" fill="#ffffff"/><rect x="126.06" y="63.03" width="31.51" height="31.51" fill="#ff7a9a"/><polygon points="157.57,63.03 157.57,94.54 126.06,94.54" fill="#ffc3d1"/><rect x="157.57" y="63.03" width="31.51" height="31.51" fill="#eceffd"/><polygon points="157.57,63.03 189.07999999999998,94.54 157.57,94.54" fill="#6b84ec"/><rect x="126.06" y="94.54" width="31.51" height="31.51" fill="#2c50e4"/><polygon points="126.06,94.54 157.57,94.54 126.06,126.05000000000001" fill="#3b5ce6"/><rect x="157.57" y="94.54" width="31.51" height="31.51" fill="#d2daf9"/><polygon points="157.57,94.54 189.07999999999998,94.54 189.07999999999998,126.05000000000001" fill="#ff819f"/><rect x="189.09" y="63.03" width="63.03" height="63.03" fill="#e3e8fb"/><path d="M 189.09 63.03 A 63.03 63.03 0 0 0 252.12 126.06 L 252.12 63.03" fill="#ffecf0"/><rect x="252.11428571428573" y="63.02857142857143" width="63.02857142857143" height="63.02857142857143" fill="#ffffff"/><rect x="252.11" y="63.03" width="31.51" height="31.51" fill="#f6f7fe"/><polygon points="283.62,63.03 283.62,94.54 252.11,94.54" fill="#ff517a"/><rect x="283.63" y="63.03" width="31.51" height="31.51" fill="#dfe4fb"/><polygon points="283.63,63.03 315.14,63.03 283.63,94.54" fill="#a2b2f3"/><rect x="252.11" y="94.54" width="31.51" height="31.51" fill="#eaedfc"/><polygon points="252.11,94.54 283.62,94.54 283.62,126.05000000000001" fill="#5e79ea"/><rect x="283.63" y="94.54" width="31.51" height="31.51" fill="#3255e4"/><polygon points="283.63,94.54 315.14,126.05000000000001 283.63,126.05000000000001" fill="#bac6f6"/><rect x="315.14" y="63.03" width="63.03" height="63.03" fill="#ff7c9b"/><polygon points="378.16999999999996,63.03 378.16999999999996,126.06 315.14,126.06" fill="#fff9fa"/><rect x="378.17" y="63.03" width="63.03" height="63.03" fill="#183fe1"/><path d="M 378.17 63.03 A 63.03 63.03 0 0 0 441.20000000000005 126.06 L 441.20000000000005 63.03" fill="#5975e9"/><rect x="441.20000000000005" y="63.02857142857143" width="63.02857142857143" height="63.02857142857143" fill="#ffffff"/><rect x="441.2" y="63.03" width="31.51" height="31.51" fill="#e7ebfc"/><path d="M 441.2 63.03 A 31.51 31.51 0 0 0 472.71 94.54 L 472.71 63.03" fill="#2147e2"/><rect x="472.71" y="63.03" width="31.51" height="31.51" fill="#ff557d"/><path d="M 472.71 94.54 A 31.51 31.51 0 0 0 504.21999999999997 63.03 L 472.71 63.03" fill="#c5cff7"/><rect x="441.2" y="94.54" width="31.51" height="31.51" fill="#4161e6"/><path d="M 441.2 126.05000000000001 A 31.51 31.51 0 0 1  472.71 94.54 L 472.71 126.05000000000001" fill="#ffb8c9"/><rect x="472.71" y="94.54" width="31.51" height="31.51" fill="#4363e7"/><path d="M 472.71 94.54 A 31.51 31.51 0 0 1 504.21999999999997 126.05000000000001 L 472.71 126.05000000000001" fill="#5a76ea"/><rect x="504.23" y="63.03" width="63.03" height="63.03" fill="#ffd9e2"/><rect x="504.23" y="63.03" width="63.03" height="63.03" fill="#ffdee6"/><rect x="567.2571428571429" y="63.02857142857143" width="63.02857142857143" height="63.02857142857143" fill="#ffffff"/><rect x="567.26" y="63.03" width="31.51" height="31.51" fill="#3e5ee6"/><path d="M 567.26 63.03 A 31.51 31.51 0 0 1 598.77 94.54 L 567.26 94.54" fill="#ff9ab2"/><rect x="598.77" y="63.03" width="31.51" height="31.51" fill="#ffeaef"/><path d="M 598.77 94.54 A 31.51 31.51 0 0 1  630.28 63.03 L 630.28 94.54" fill="#a7b6f4"/><rect x="567.26" y="94.54" width="31.51" height="31.51" fill="#4665e7"/><path d="M 567.26 126.05000000000001 A 31.51 31.51 0 0 0 598.77 94.54 L 567.26 94.54" fill="#dce2fb"/><rect x="598.77" y="94.54" width="31.51" height="31.51" fill="#ff809e"/><path d="M 598.77 94.54 A 31.51 31.51 0 0 0 630.28 126.05000000000001 L 630.28 94.54" fill="#cdd5f8"/><rect x="630.2857142857143" y="63.02857142857143" width="63.02857142857143" height="63.02857142857143" fill="#ffffff"/><rect x="630.29" y="63.03" width="31.51" height="31.51" fill="#ffd2dd"/><polygon points="661.8,63.03 661.8,94.54 630.29,94.54" fill="#6a83ec"/><rect x="661.8" y="63.03" width="31.51" height="31.51" fill="#2046e2"/><polygon points="661.8,63.03 693.31,94.54 661.8,94.54" fill="#7990ee"/><rect x="630.29" y="94.54" width="31.51" height="31.51" fill="#ff4772"/><polygon points="630.29,94.54 661.8,94.54 630.29,126.05000000000001" fill="#f2f4fd"/><rect x="661.8" y="94.54" width="31.51" height="31.51" fill="#ff557e"/><polygon points="661.8,94.54 693.31,94.54 693.31,126.05000000000001" fill="#ff3c6a"/><rect x="693.3142857142858" y="63.02857142857143" width="63.02857142857143" height="63.02857142857143" fill="#ffffff"/><rect x="693.31" y="63.03" width="31.51" height="31.51" fill="#3a5be5"/><path d="M 693.31 63.03 A 31.51 31.51 0 0 1 724.8199999999999 94.54 L 693.31 94.54" fill="#eef1fd"/><rect x="724.83" y="63.03" width="31.51" height="31.51" fill="#4b69e8"/><path d="M 724.83 94.54 A 31.51 31.51 0 0 1  756.34 63.03 L 756.34 94.54" fill="#fff9fb"/><rect x="693.31" y="94.54" width="31.51" height="31.51" fill="#ff9cb4"/><path d="M 693.31 126.05000000000001 A 31.51 31.51 0 0 0 724.8199999999999 94.54 L 693.31 94.54" fill="#b9c5f6"/><rect x="724.83" y="94.54" width="31.51" height="31.51" fill="#f3f5fd"/><path d="M 724.83 94.54 A 31.51 31.51 0 0 0 756.34 126.05000000000001 L 756.34 94.54" fill="#cad3f8"/><rect x="756.34" y="63.03" width="63.03" height="63.03" fill="#ff406d"/><path d="M 756.34 63.03 A 63.03 63.03 0 0 1 819.37 126.06 L 756.34 126.06" fill="#e6eafc"/><rect x="0" y="126.05714285714286" width="63.02857142857143" height="63.02857142857143" fill="#ffffff"/><rect x="0" y="126.06" width="31.51" height="31.51" fill="#d4dbf9"/><path d="M 0 126.06 A 31.51 31.51 0 0 0 31.51 157.57 L 31.51 126.06" fill="#284de3"/><rect x="31.51" y="126.06" width="31.51" height="31.51" fill="#ff5c82"/><path d="M 31.51 157.57 A 31.51 31.51 0 0 0 63.02 126.06 L 31.51 126.06" fill="#fdfdff"/><rect x="0" y="157.57" width="31.51" height="31.51" fill="#e6eafc"/><path d="M 0 189.07999999999998 A 31.51 31.51 0 0 1  31.51 157.57 L 31.51 189.07999999999998" fill="#ffbaca"/><rect x="31.51" y="157.57" width="31.51" height="31.51" fill="#2a4ee3"/><path d="M 31.51 157.57 A 31.51 31.51 0 0 1 63.02 189.07999999999998 L 31.51 189.07999999999998" fill="#ffeaef"/><rect x="63.02857142857143" y="126.05714285714286" width="63.02857142857143" height="63.02857142857143" fill="#ffffff"/><rect x="63.03" y="126.06" width="31.51" height="31.51" fill="#ff98b1"/><path d="M 63.03 157.57 A 31.51 31.51 0 0 1  94.54 126.06 L 94.54 157.57" fill="#ffa8bd"/><rect x="94.54" y="126.06" width="31.51" height="31.51" fill="#ff3968"/><path d="M 94.54 126.06 A 31.51 31.51 0 0 1 126.05000000000001 157.57 L 94.54 157.57" fill="#a0b0f3"/><rect x="63.03" y="157.57" width="31.51" height="31.51" fill="#798fee"/><path d="M 63.03 157.57 A 31.51 31.51 0 0 0 94.54 189.07999999999998 L 94.54 157.57" fill="#ff6388"/><rect x="94.54" y="157.57" width="31.51" height="31.51" fill="#738aed"/><path d="M 94.54 189.07999999999998 A 31.51 31.51 0 0 0 126.05000000000001 157.57 L 94.54 157.57" fill="#fffdfd"/><rect x="126.05714285714286" y="126.05714285714286" width="63.02857142857143" height="63.02857142857143" fill="#ffffff"/><rect x="126.06" y="126.06" width="31.51" height="31.51" fill="#ffa3b9"/><path d="M 126.06 157.57 A 31.51 31.51 0 0 1 157.57 126.06 L 157.57 133.9375 A 23.6325 23.6325 0 0 0 133.9375 157.57" fill="#2f52e4"/><rect x="157.57" y="126.06" width="31.51" height="31.51" fill="#4867e7"/><path d="M 157.57 126.06 A 31.51 31.51 0 0 1 189.07999999999998 157.57 L 181.2025 157.57 A 23.6325 23.6325 0 0 0 157.57 133.9375" fill="#ffc6d4"/><rect x="126.06" y="157.57" width="31.51" height="31.51" fill="#ffeff3"/><path d="M 126.06 157.57 A 31.51 31.51 0 0 0 157.57 189.07999999999998 L 157.57 181.2025 A 23.6325 23.6325 0 0 1 133.9375 157.57" fill="#ff7193"/><rect x="157.57" y="157.57" width="31.51" height="31.51" fill="#3e5ee6"/><path d="M 157.57 189.07999999999998 A 31.51 31.51 0 0 0 189.07999999999998 157.57 L 181.2025 157.57 A 23.6325 23.6325 0 0 1 157.57 181.2025" fill="#c9d2f8"/><rect x="189.0857142857143" y="126.05714285714286" width="63.02857142857143" height="63.02857142857143" fill="#ffffff"/><rect x="189.09" y="126.06" width="31.51" height="31.51" fill="#ffe8ee"/><path d="M 189.09 126.06 A 31.51 31.51 0 0 1 220.6 157.57 L 189.09 157.57" fill="#eceffc"/><rect x="220.6" y="126.06" width="31.51" height="31.51" fill="#ff3968"/><path d="M 220.6 157.57 A 31.51 31.51 0 0 1  252.10999999999999 126.06 L 252.10999999999999 157.57" fill="#ff5c83"/><rect x="189.09" y="157.57" width="31.51" height="31.51" fill="#506ee8"/><path d="M 189.09 189.07999999999998 A 31.51 31.51 0 0 0 220.6 157.57 L 189.09 157.57" fill="#fffbfc"/><rect x="220.6" y="157.57" width="31.51" height="31.51" fill="#ffe6ec"/><path d="M 220.6 157.57 A 31.51 31.51 0 0 0 252.10999999999999 189.07999999999998 L 252.10999999999999 157.57" fill="#ff5b82"/><rect x="252.11428571428573" y="126.05714285714286" width="63.02857142857143" height="63.02857142857143" fill="#ffffff"/><rect x="252.11" y="126.06" width="31.51" height="31.51" fill="#ffdde5"/><polygon points="283.62,126.06 283.62,157.57 252.11,157.57" fill="#afbdf5"/><rect x="283.63" y="126.06" width="31.51" height="31.51" fill="#fefeff"/><polygon points="283.63,126.06 315.14,126.06 283.63,157.57" fill="#8b9ff0"/><rect x="252.11" y="157.57" width="31.51" height="31.51" fill="#8499ef"/><polygon points="252.11,157.57 283.62,157.57 283.62,189.07999999999998" fill="#1d43e2"/><rect x="283.63" y="157.57" width="31.51" height="31.51" fill="#ff90aa"/><polygon points="283.63,157.57 315.14,189.07999999999998 283.63,189.07999999999998" fill="#617ceb"/><rect x="315.14285714285717" y="126.05714285714286" width="63.02857142857143" height="63.02857142857143" fill="#ffffff"/><rect x="315.14" y="126.06" width="31.51" height="31.51" fill="#7d93ee"/><path d="M 315.14 126.06 A 31.51 31.51 0 0 1 346.65 157.57 L 315.14 157.57" fill="#ffbecd"/><rect x="346.66" y="126.06" width="31.51" height="31.51" fill="#3b5ce5"/><path d="M 346.66 157.57 A 31.51 31.51 0 0 1  378.17 126.06 L 378.17 157.57" fill="#ffb1c4"/><rect x="315.14" y="157.57" width="31.51" height="31.51" fill="#5874e9"/><path d="M 315.14 189.07999999999998 A 31.51 31.51 0 0 0 346.65 157.57 L 315.14 157.57" fill="#ff6e90"/><rect x="346.66" y="157.57" width="31.51" height="31.51" fill="#2146e2"/><path d="M 346.66 157.57 A 31.51 31.51 0 0 0 378.17 189.07999999999998 L 378.17 157.57" fill="#ff698d"/><rect x="378.17" y="126.06" width="63.03" height="63.03" fill="#ff87a3"/><path d="M 378.17 189.09 A 63.03 63.03 0 0 0 441.20000000000005 126.06 L 378.17 126.06" fill="#ff4d77"/><rect x="441.2" y="126.06" width="63.03" height="63.03" fill="#ff678b"/><polygon points="441.2,126.06 504.23,126.06 441.2,189.09" fill="#ffa8bd"/><rect x="504.22857142857146" y="126.05714285714286" width="63.02857142857143" height="63.02857142857143" fill="#ffffff"/><rect x="504.23" y="126.06" width="31.51" height="31.51" fill="#ff4e78"/><polygon points="535.74,126.06 535.74,157.57 504.23,157.57" fill="#ffafc2"/><rect x="535.74" y="126.06" width="31.51" height="31.51" fill="#ff4974"/><polygon points="535.74,126.06 567.25,126.06 535.74,157.57" fill="#91a4f1"/><rect x="504.23" y="157.57" width="31.51" height="31.51" fill="#ffcad7"/><polygon points="504.23,157.57 535.74,157.57 535.74,189.07999999999998" fill="#ffd8e1"/><rect x="535.74" y="157.57" width="31.51" height="31.51" fill="#eaeefc"/><polygon points="535.74,157.57 567.25,189.07999999999998 535.74,189.07999999999998" fill="#7088ec"/><rect x="567.26" y="126.06" width="63.03" height="63.03" fill="#ff4773"/><path d="M 567.26 189.09 A 63.03 63.03 0 0 1  630.29 126.06 L 630.29 189.09" fill="#ff82a0"/><rect x="630.29" y="126.06" width="63.03" height="63.03" fill="#ffc3d1"/><polygon points="693.3199999999999,126.06 693.3199999999999,189.09 630.29,189.09" fill="#b2bff5"/><rect x="693.31" y="126.06" width="63.03" height="63.03" fill="#ffe8ee"/><rect x="693.31" y="126.06" width="63.03" height="63.03" fill="#ff9eb5"/><rect x="756.34" y="126.06" width="63.03" height="63.03" fill="#ff3d6b"/><path d="M 756.34 126.06 A 63.03 63.03 0 0 0 819.37 189.09 L 819.37 126.06" fill="#5a76ea"/><rect x="0" y="189.0857142857143" width="63.02857142857143" height="63.02857142857143" fill="#ffffff"/><rect x="0" y="189.09" width="31.51" height="31.51" fill="#4262e6"/><path d="M 0 220.6 A 31.51 31.51 0 0 0 31.51 189.09 L 0 189.09" fill="#4262e6"/><rect x="31.51" y="189.09" width="31.51" height="31.51" fill="#ff5e85"/><path d="M 31.51 189.09 A 31.51 31.51 0 0 0 63.02 220.6 L 63.02 189.09" fill="#4363e7"/><rect x="0" y="220.6" width="31.51" height="31.51" fill="#ff5a81"/><path d="M 0 220.6 A 31.51 31.51 0 0 1 31.51 252.10999999999999 L 0 252.10999999999999" fill="#fff2f5"/><rect x="31.51" y="220.6" width="31.51" height="31.51" fill="#5f7aea"/><path d="M 31.51 252.10999999999999 A 31.51 31.51 0 0 1  63.02 220.6 L 63.02 252.10999999999999" fill="#3053e4"/><rect x="63.03" y="189.09" width="63.03" height="63.03" fill="#ff7898"/><rect x="63.03" y="189.09" width="63.03" height="63.03" fill="#9babf2"/><rect x="126.06" y="189.09" width="63.03" height="63.03" fill="#ff85a2"/><polygon points="126.06,189.09 189.09,252.12 126.06,252.12" fill="#ffa0b7"/><rect x="189.09" y="189.09" width="63.03" height="63.03" fill="#ffc8d5"/><rect x="189.09" y="189.09" width="63.03" height="63.03" fill="#ff9ab2"/><rect x="252.11" y="189.09" width="63.03" height="63.03" fill="#ffc7d4"/><rect x="252.11" y="189.09" width="63.03" height="63.03" fill="#ff8aa5"/><rect x="315.14" y="189.09" width="63.03" height="63.03" fill="#c7d0f8"/><polygon points="315.14,189.09 378.16999999999996,189.09 378.16999999999996,252.12" fill="#ff4773"/><rect x="378.17" y="189.09" width="63.03" height="63.03" fill="#edf0fd"/><polygon points="378.17,189.09 441.20000000000005,252.12 378.17,252.12" fill="#ff7394"/><rect x="441.2" y="189.09" width="63.03" height="63.03" fill="#ff6489"/><rect x="441.2" y="189.09" width="63.03" height="63.03" fill="#ffd2dc"/><rect x="504.23" y="189.09" width="63.03" height="63.03" fill="#ff3666"/><rect x="504.23" y="189.09" width="63.03" height="63.03" fill="#637deb"/><rect x="567.26" y="189.09" width="63.03" height="63.03" fill="#ff3565"/><polygon points="567.26,189.09 630.29,189.09 567.26,252.12" fill="#f1f4fd"/><rect x="630.2857142857143" y="189.0857142857143" width="63.02857142857143" height="63.02857142857143" fill="#ffffff"/><rect x="630.29" y="189.09" width="31.51" height="31.51" fill="#b7c3f6"/><circle cx="646.045" cy="204.845" r="15.755" fill="#ffb8c9"/><rect x="661.8" y="189.09" width="31.51" height="31.51" fill="#ffb3c5"/><rect x="661.8" y="189.09" width="31.51" height="31.51" fill="#fbfcff"/><rect x="630.29" y="220.6" width="31.51" height="31.51" fill="#a5b4f3"/><circle cx="646.045" cy="236.355" r="15.755" fill="#ff577f"/><rect x="661.8" y="220.6" width="31.51" height="31.51" fill="#ffd4de"/><rect x="661.8" y="220.6" width="31.51" height="31.51" fill="#ffecf0"/><rect x="693.31" y="189.09" width="63.03" height="63.03" fill="#ffabbf"/><rect x="693.31" y="189.09" width="63.03" height="63.03" fill="#4666e7"/><rect x="756.3428571428572" y="189.0857142857143" width="63.02857142857143" height="63.02857142857143" fill="#ffffff"/><rect x="756.34" y="189.09" width="31.51" height="31.51" fill="#b2bff5"/><path d="M 756.34 189.09 A 31.51 31.51 0 0 1 787.85 220.6 L 756.34 220.6" fill="#6882eb"/><rect x="787.86" y="189.09" width="31.51" height="31.51" fill="#bfcaf7"/><path d="M 787.86 220.6 A 31.51 31.51 0 0 1  819.37 189.09 L 819.37 220.6" fill="#ff8ca7"/><rect x="756.34" y="220.6" width="31.51" height="31.51" fill="#e1e6fb"/><path d="M 756.34 252.10999999999999 A 31.51 31.51 0 0 0 787.85 220.6 L 756.34 220.6" fill="#ffa3b9"/><rect x="787.86" y="220.6" width="31.51" height="31.51" fill="#ff6086"/><path d="M 787.86 220.6 A 31.51 31.51 0 0 0 819.37 252.10999999999999 L 819.37 220.6" fill="#98aaf2"/><rect x="0" y="252.11" width="63.03" height="63.03" fill="#c1cbf7"/><path d="M 0 252.11 A 63.03 63.03 0 0 1 63.03 315.14 L 0 315.14" fill="#ffc1d0"/><rect x="63.03" y="252.11" width="63.03" height="63.03" fill="#2f52e4"/><path d="M 63.03 315.14 A 63.03 63.03 0 0 1  126.06 252.11 L 126.06 315.14" fill="#ffd6e0"/><rect x="126.06" y="252.11" width="63.03" height="63.03" fill="#a8b7f4"/><polygon points="126.06,252.11 189.09,315.14 126.06,315.14" fill="#4565e7"/><rect x="189.09" y="252.11" width="63.03" height="63.03" fill="#ff3b6a"/><path d="M 189.09 315.14 A 63.03 63.03 0 0 1  252.12 252.11 L 252.12 315.14" fill="#ff668a"/><rect x="252.11" y="252.11" width="63.03" height="63.03" fill="#ffb3c5"/><polygon points="252.11,252.11 315.14,252.11 315.14,315.14" fill="#ff5e84"/><rect x="315.14285714285717" y="252.11428571428573" width="63.02857142857143" height="63.02857142857143" fill="#ffffff"/><rect x="315.14" y="252.11" width="31.51" height="31.51" fill="#4968e7"/><polygon points="346.65,252.11 346.65,283.62 315.14,283.62" fill="#ff4c76"/><rect x="346.66" y="252.11" width="31.51" height="31.51" fill="#ffeff3"/><polygon points="346.66,252.11 378.17,252.11 346.66,283.62" fill="#ffd9e2"/><rect x="315.14" y="283.63" width="31.51" height="31.51" fill="#ffbecd"/><polygon points="315.14,283.63 346.65,283.63 346.65,315.14" fill="#ff8da8"/><rect x="346.66" y="283.63" width="31.51" height="31.51" fill="#5773e9"/><polygon points="346.66,283.63 378.17,315.14 346.66,315.14" fill="#ff7797"/><rect x="378.17" y="252.11" width="63.03" height="63.03" fill="#4665e7"/><polygon points="378.17,252.11 441.20000000000005,252.11 378.17,315.14" fill="#ffe7ed"/><rect x="441.20000000000005" y="252.11428571428573" width="63.02857142857143" height="63.02857142857143" fill="#ffffff"/><rect x="441.2" y="252.11" width="31.51" height="31.51" fill="#ff9db4"/><polygon points="472.71,252.11 472.71,283.62 441.2,283.62" fill="#ff7395"/><rect x="472.71" y="252.11" width="31.51" height="31.51" fill="#b4c1f5"/><polygon points="472.71,252.11 504.21999999999997,283.62 472.71,283.62" fill="#ff5d83"/><rect x="441.2" y="283.63" width="31.51" height="31.51" fill="#5874e9"/><polygon points="441.2,283.63 472.71,283.63 472.71,315.14" fill="#5e79ea"/><rect x="472.71" y="283.63" width="31.51" height="31.51" fill="#ff7394"/><polygon points="472.71,283.63 504.21999999999997,283.63 472.71,315.14" fill="#ff537c"/><rect x="504.22857142857146" y="252.11428571428573" width="63.02857142857143" height="63.02857142857143" fill="#ffffff"/><rect x="504.23" y="252.11" width="31.51" height="31.51" fill="#ffb3c5"/><path d="M 504.23 252.11 A 31.51 31.51 0 0 1 535.74 283.62 L 504.23 283.62" fill="#5773e9"/><rect x="535.74" y="252.11" width="31.51" height="31.51" fill="#ffb4c6"/><path d="M 535.74 283.62 A 31.51 31.51 0 0 1  567.25 252.11 L 567.25 283.62" fill="#dee4fb"/><rect x="504.23" y="283.63" width="31.51" height="31.51" fill="#ff92ac"/><path d="M 504.23 315.14 A 31.51 31.51 0 0 0 535.74 283.63 L 504.23 283.63" fill="#2348e2"/><rect x="535.74" y="283.63" width="31.51" height="31.51" fill="#ffb6c7"/><path d="M 535.74 283.63 A 31.51 31.51 0 0 0 567.25 315.14 L 567.25 283.63" fill="#4665e7"/><rect x="567.2571428571429" y="252.11428571428573" width="63.02857142857143" height="63.02857142857143" fill="#ffffff"/><rect x="567.26" y="252.11" width="31.51" height="31.51" fill="#3355e4"/><polygon points="598.77,252.11 598.77,283.62 567.26,283.62" fill="#ff7294"/><rect x="598.77" y="252.11" width="31.51" height="31.51" fill="#feffff"/><polygon points="598.77,252.11 630.28,252.11 598.77,283.62" fill="#889cef"/><rect x="567.26" y="283.63" width="31.51" height="31.51" fill="#ff809e"/><polygon points="567.26,283.63 598.77,283.63 598.77,315.14" fill="#ffe0e7"/><rect x="598.77" y="283.63" width="31.51" height="31.51" fill="#9bacf2"/><polygon points="598.77,283.63 630.28,315.14 598.77,315.14" fill="#ff7797"/><rect x="630.29" y="252.11" width="63.03" height="63.03" fill="#ff6f91"/><polygon points="693.3199999999999,252.11 693.3199999999999,315.14 630.29,315.14" fill="#6e86ec"/><rect x="693.3142857142858" y="252.11428571428573" width="63.02857142857143" height="63.02857142857143" fill="#ffffff"/><rect x="693.31" y="252.11" width="31.51" height="31.51" fill="#7088ec"/><polygon points="724.8199999999999,252.11 724.8199999999999,283.62 693.31,283.62" fill="#ff406d"/><rect x="724.83" y="252.11" width="31.51" height="31.51" fill="#94a6f1"/><polygon points="724.83,252.11 756.34,252.11 724.83,283.62" fill="#eaedfc"/><rect x="693.31" y="283.63" width="31.51" height="31.51" fill="#294de3"/><polygon points="693.31,283.63 724.8199999999999,283.63 724.8199999999999,315.14" fill="#274be3"/><rect x="724.83" y="283.63" width="31.51" height="31.51" fill="#90a3f1"/><polygon points="724.83,283.63 756.34,315.14 724.83,315.14" fill="#6680eb"/><rect x="756.34" y="252.11" width="63.03" height="63.03" fill="#6982ec"/><path d="M 756.34 252.11 A 63.03 63.03 0 0 1 819.37 315.14 L 756.34 315.14" fill="#ffa3b9"/><rect x="0" y="315.14285714285717" width="63.02857142857143" height="63.02857142857143" fill="#ffffff"/><rect x="0" y="315.14" width="31.51" height="31.51" fill="#ff7797"/><path d="M 0 315.14 A 31.51 31.51 0 0 1 31.51 346.65 L 0 346.65" fill="#6c85ec"/><rect x="31.51" y="315.14" width="31.51" height="31.51" fill="#5874e9"/><path d="M 31.51 346.65 A 31.51 31.51 0 0 1  63.02 315.14 L 63.02 346.65" fill="#506ee8"/><rect x="0" y="346.66" width="31.51" height="31.51" fill="#ff7999"/><path d="M 0 378.17 A 31.51 31.51 0 0 0 31.51 346.66 L 0 346.66" fill="#d6ddfa"/><rect x="31.51" y="346.66" width="31.51" height="31.51" fill="#ffebef"/><path d="M 31.51 346.66 A 31.51 31.51 0 0 0 63.02 378.17 L 63.02 346.66" fill="#ff99b1"/><rect x="63.02857142857143" y="315.14285714285717" width="63.02857142857143" height="63.02857142857143" fill="#ffffff"/><rect x="63.03" y="315.14" width="31.51" height="31.51" fill="#ffd8e1"/><polygon points="94.54,315.14 94.54,346.65 63.03,346.65" fill="#738aed"/><rect x="94.54" y="315.14" width="31.51" height="31.51" fill="#ff4c76"/><polygon points="94.54,315.14 126.05000000000001,315.14 94.54,346.65" fill="#e8ecfc"/><rect x="63.03" y="346.66" width="31.51" height="31.51" fill="#ffa9bd"/><polygon points="63.03,346.66 94.54,346.66 94.54,378.17" fill="#3b5ce6"/><rect x="94.54" y="346.66" width="31.51" height="31.51" fill="#ff5e84"/><polygon points="94.54,346.66 126.05000000000001,378.17 94.54,378.17" fill="#dae0fa"/><rect x="126.06" y="315.14" width="63.03" height="63.03" fill="#647eeb"/><path d="M 126.06 315.14 A 63.03 63.03 0 0 0 189.09 378.16999999999996 L 189.09 315.14" fill="#8095ee"/><rect x="189.09" y="315.14" width="63.03" height="63.03" fill="#ff9cb4"/><path d="M 189.09 315.14 A 63.03 63.03 0 0 0 252.12 378.16999999999996 L 252.12 315.14" fill="#ff4471"/><rect x="252.11428571428573" y="315.14285714285717" width="63.02857142857143" height="63.02857142857143" fill="#ffffff"/><rect x="252.11" y="315.14" width="31.51" height="31.51" fill="#8196ef"/><path d="M 252.11 315.14 A 31.51 31.51 0 0 0 283.62 346.65 L 283.62 315.14" fill="#b5c2f5"/><rect x="283.63" y="315.14" width="31.51" height="31.51" fill="#ffe3e9"/><path d="M 283.63 346.65 A 31.51 31.51 0 0 0 315.14 315.14 L 283.63 315.14" fill="#637deb"/><rect x="252.11" y="346.66" width="31.51" height="31.51" fill="#5370e9"/><path d="M 252.11 378.17 A 31.51 31.51 0 0 1  283.62 346.66 L 283.62 378.17" fill="#c7d1f8"/><rect x="283.63" y="346.66" width="31.51" height="31.51" fill="#4766e7"/><path d="M 283.63 346.66 A 31.51 31.51 0 0 1 315.14 378.17 L 283.63 378.17" fill="#ffa4ba"/><rect x="315.14285714285717" y="315.14285714285717" width="63.02857142857143" height="63.02857142857143" fill="#ffffff"/><rect x="315.14" y="315.14" width="31.51" height="31.51" fill="#97a8f1"/><path d="M 315.14 315.14 A 31.51 31.51 0 0 0 346.65 346.65 L 346.65 315.14" fill="#4d6be8"/><rect x="346.66" y="315.14" width="31.51" height="31.51" fill="#ff7b9b"/><path d="M 346.66 346.65 A 31.51 31.51 0 0 0 378.17 315.14 L 346.66 315.14" fill="#2b4fe3"/><rect x="315.14" y="346.66" width="31.51" height="31.51" fill="#768ded"/><path d="M 315.14 378.17 A 31.51 31.51 0 0 1  346.65 346.66 L 346.65 378.17" fill="#d1d9f9"/><rect x="346.66" y="346.66" width="31.51" height="31.51" fill="#9cadf2"/><path d="M 346.66 346.66 A 31.51 31.51 0 0 1 378.17 378.17 L 346.66 378.17" fill="#274ce3"/><rect x="378.1714285714286" y="315.14285714285717" width="63.02857142857143" height="63.02857142857143" fill="#ffffff"/><rect x="378.17" y="315.14" width="31.51" height="31.51" fill="#4c6ae8"/><polygon points="409.68,315.14 409.68,346.65 378.17,346.65" fill="#4f6ce8"/><rect x="409.69" y="315.14" width="31.51" height="31.51" fill="#e2e7fb"/><polygon points="409.69,315.14 441.2,346.65 409.69,346.65" fill="#3759e5"/><rect x="378.17" y="346.66" width="31.51" height="31.51" fill="#ff416e"/><polygon points="378.17,346.66 409.68,346.66 378.17,378.17" fill="#ff9eb5"/><rect x="409.69" y="346.66" width="31.51" height="31.51" fill="#ff9ab2"/><polygon points="409.69,346.66 441.2,346.66 441.2,378.17" fill="#dfe5fb"/><rect x="441.20000000000005" y="315.14285714285717" width="63.02857142857143" height="63.02857142857143" fill="#ffffff"/><rect x="441.2" y="315.14" width="31.51" height="31.51" fill="#92a4f1"/><path d="M 441.2 315.14 A 31.51 31.51 0 0 1 472.71 346.65 L 441.2 346.65" fill="#ffc3d1"/><rect x="472.71" y="315.14" width="31.51" height="31.51" fill="#ffe5eb"/><path d="M 472.71 346.65 A 31.51 31.51 0 0 1  504.21999999999997 315.14 L 504.21999999999997 346.65" fill="#3255e4"/><rect x="441.2" y="346.66" width="31.51" height="31.51" fill="#526fe9"/><path d="M 441.2 378.17 A 31.51 31.51 0 0 0 472.71 346.66 L 441.2 346.66" fill="#93a6f1"/><rect x="472.71" y="346.66" width="31.51" height="31.51" fill="#8da0f0"/><path d="M 472.71 346.66 A 31.51 31.51 0 0 0 504.21999999999997 378.17 L 504.21999999999997 346.66" fill="#a4b4f3"/><rect x="504.23" y="315.14" width="63.03" height="63.03" fill="#f5f6fe"/><path d="M 504.23 315.14 A 63.03 63.03 0 0 1 567.26 378.16999999999996 L 504.23 378.16999999999996" fill="#dae0fa"/><rect x="567.2571428571429" y="315.14285714285717" width="63.02857142857143" height="63.02857142857143" fill="#ffffff"/><rect x="567.26" y="315.14" width="31.51" height="31.51" fill="#879bef"/><path d="M 567.26 315.14 A 31.51 31.51 0 0 1 598.77 346.65 L 567.26 346.65" fill="#ffb4c6"/><rect x="598.77" y="315.14" width="31.51" height="31.51" fill="#f6f8fe"/><path d="M 598.77 346.65 A 31.51 31.51 0 0 1  630.28 315.14 L 630.28 346.65" fill="#fff2f5"/><rect x="567.26" y="346.66" width="31.51" height="31.51" fill="#3859e5"/><path d="M 567.26 378.17 A 31.51 31.51 0 0 0 598.77 346.66 L 567.26 346.66" fill="#4e6ce8"/><rect x="598.77" y="346.66" width="31.51" height="31.51" fill="#fdfeff"/><path d="M 598.77 346.66 A 31.51 31.51 0 0 0 630.28 378.17 L 630.28 346.66" fill="#ff3a69"/><rect x="630.2857142857143" y="315.14285714285717" width="63.02857142857143" height="63.02857142857143" fill="#ffffff"/><rect x="630.29" y="315.14" width="31.51" height="31.51" fill="#4a68e7"/><polygon points="661.8,315.14 661.8,346.65 630.29,346.65" fill="#e0e6fb"/><rect x="661.8" y="315.14" width="31.51" height="31.51" fill="#8ea1f0"/><polygon points="661.8,315.14 693.31,346.65 661.8,346.65" fill="#3053e4"/><rect x="630.29" y="346.66" width="31.51" height="31.51" fill="#ffd3dd"/><polygon points="630.29,346.66 661.8,346.66 630.29,378.17" fill="#f5f7fe"/><rect x="661.8" y="346.66" width="31.51" height="31.51" fill="#ffccd8"/><polygon points="661.8,346.66 693.31,346.66 693.31,378.17" fill="#ffdfe7"/><rect x="693.31" y="315.14" width="63.03" height="63.03" fill="#3d5ee6"/><path d="M 693.31 378.16999999999996 A 63.03 63.03 0 0 0 756.3399999999999 315.14 L 693.31 315.14" fill="#ff426f"/><rect x="756.34" y="315.14" width="63.03" height="63.03" fill="#798fee"/><rect x="756.34" y="315.14" width="63.03" height="63.03" fill="#4c6ae8"/><rect x="0" y="378.1714285714286" width="63.02857142857143" height="63.02857142857143" fill="#ffffff"/><rect x="0" y="378.17" width="31.51" height="31.51" fill="#ff7a99"/><path d="M 0 378.17 A 31.51 31.51 0 0 1 31.51 409.68 L 0 409.68" fill="#ffa0b7"/><rect x="31.51" y="378.17" width="31.51" height="31.51" fill="#ffc6d4"/><path d="M 31.51 409.68 A 31.51 31.51 0 0 1  63.02 378.17 L 63.02 409.68" fill="#e0e5fb"/><rect x="0" y="409.69" width="31.51" height="31.51" fill="#a4b4f3"/><path d="M 0 441.2 A 31.51 31.51 0 0 0 31.51 409.69 L 0 409.69" fill="#ff7e9d"/><rect x="31.51" y="409.69" width="31.51" height="31.51" fill="#ffd4de"/><path d="M 31.51 409.69 A 31.51 31.51 0 0 0 63.02 441.2 L 63.02 409.69" fill="#ff6388"/><rect x="63.03" y="378.17" width="63.03" height="63.03" fill="#ffbccc"/><polygon points="63.03,378.17 126.06,378.17 63.03,441.20000000000005" fill="#1d43e2"/><rect x="126.06" y="378.17" width="63.03" height="63.03" fill="#ff84a1"/><rect x="126.06" y="378.17" width="63.03" height="63.03" fill="#6680eb"/><rect x="189.09" y="378.17" width="63.03" height="63.03" fill="#ffd4de"/><polygon points="252.12,378.17 252.12,441.20000000000005 189.09,441.20000000000005" fill="#859aef"/><rect x="252.11428571428573" y="378.1714285714286" width="63.02857142857143" height="63.02857142857143" fill="#ffffff"/><rect x="252.11" y="378.17" width="31.51" height="31.51" fill="#fff7f9"/><path d="M 252.11 409.68 A 31.51 31.51 0 0 1 283.62 378.17 L 283.62 386.0475 A 23.6325 23.6325 0 0 0 259.9875 409.68" fill="#4161e6"/><rect x="283.63" y="378.17" width="31.51" height="31.51" fill="#ffecf1"/><path d="M 283.63 378.17 A 31.51 31.51 0 0 1 315.14 409.68 L 307.2625 409.68 A 23.6325 23.6325 0 0 0 283.63 386.0475" fill="#ff3666"/><rect x="252.11" y="409.69" width="31.51" height="31.51" fill="#2046e2"/><path d="M 252.11 409.69 A 31.51 31.51 0 0 0 283.62 441.2 L 283.62 433.3225 A 23.6325 23.6325 0 0 1 259.9875 409.69" fill="#ff3b6a"/><rect x="283.63" y="409.69" width="31.51" height="31.51" fill="#ffb3c5"/><path d="M 283.63 441.2 A 31.51 31.51 0 0 0 315.14 409.69 L 307.2625 409.69 A 23.6325 23.6325 0 0 1 283.63 433.3225" fill="#3759e5"/><rect x="315.14285714285717" y="378.1714285714286" width="63.02857142857143" height="63.02857142857143" fill="#ffffff"/><rect x="315.14" y="378.17" width="31.51" height="31.51" fill="#ffbfce"/><polygon points="346.65,378.17 346.65,409.68 315.14,409.68" fill="#f5f6fe"/><rect x="346.66" y="378.17" width="31.51" height="31.51" fill="#ff809e"/><polygon points="346.66,378.17 378.17,409.68 346.66,409.68" fill="#bac6f6"/><rect x="315.14" y="409.69" width="31.51" height="31.51" fill="#ffdae3"/><polygon points="315.14,409.69 346.65,409.69 315.14,441.2" fill="#afbdf5"/><rect x="346.66" y="409.69" width="31.51" height="31.51" fill="#ff5d83"/><polygon points="346.66,409.69 378.17,409.69 378.17,441.2" fill="#ff3a69"/><rect x="378.1714285714286" y="378.1714285714286" width="63.02857142857143" height="63.02857142857143" fill="#ffffff"/><rect x="378.17" y="378.17" width="31.51" height="31.51" fill="#ff7e9d"/><polygon points="409.68,378.17 409.68,409.68 378.17,409.68" fill="#ff7797"/><rect x="409.69" y="378.17" width="31.51" height="31.51" fill="#ff9fb6"/><polygon points="409.69,378.17 441.2,409.68 409.69,409.68" fill="#fffcfc"/><rect x="378.17" y="409.69" width="31.51" height="31.51" fill="#ff85a2"/><polygon points="378.17,409.69 409.68,409.69 378.17,441.2" fill="#c2ccf7"/><rect x="409.69" y="409.69" width="31.51" height="31.51" fill="#e3e8fb"/><polygon points="409.69,409.69 441.2,409.69 441.2,441.2" fill="#2146e2"/><rect x="441.2" y="378.17" width="63.03" height="63.03" fill="#ff3f6d"/><polygon points="441.2,378.17 504.23,441.20000000000005 441.2,441.20000000000005" fill="#4060e6"/><rect x="504.23" y="378.17" width="63.03" height="63.03" fill="#ffcad6"/><polygon points="504.23,378.17 567.26,441.20000000000005 504.23,441.20000000000005" fill="#ffd0db"/><rect x="567.26" y="378.17" width="63.03" height="63.03" fill="#ff99b1"/><path d="M 567.26 378.17 A 63.03 63.03 0 0 1  630.29 441.20000000000005 L 567.26 378.17 A 63.03 63.03 0 0 0 630.29 441.20000000000005" fill="#ff85a2"/><rect x="630.2857142857143" y="378.1714285714286" width="63.02857142857143" height="63.02857142857143" fill="#ffffff"/><rect x="630.29" y="378.17" width="31.51" height="31.51" fill="#94a6f1"/><path d="M 630.29 409.68 A 31.51 31.51 0 0 0 661.8 378.17 L 630.29 378.17" fill="#ffb5c6"/><rect x="661.8" y="378.17" width="31.51" height="31.51" fill="#2b4fe3"/><path d="M 661.8 378.17 A 31.51 31.51 0 0 0 693.31 409.68 L 693.31 378.17" fill="#4060e6"/><rect x="630.29" y="409.69" width="31.51" height="31.51" fill="#ff6c8f"/><path d="M 630.29 409.69 A 31.51 31.51 0 0 1 661.8 441.2 L 630.29 441.2" fill="#abb9f4"/><rect x="661.8" y="409.69" width="31.51" height="31.51" fill="#ffc0cf"/><path d="M 661.8 441.2 A 31.51 31.51 0 0 1  693.31 409.69 L 693.31 441.2" fill="#ffe5eb"/><rect x="693.3142857142858" y="378.1714285714286" width="63.02857142857143" height="63.02857142857143" fill="#ffffff"/><rect x="693.31" y="378.17" width="31.51" height="31.51" fill="#7d93ee"/><polygon points="724.8199999999999,378.17 724.8199999999999,409.68 693.31,409.68" fill="#ff7595"/><rect x="724.83" y="378.17" width="31.51" height="31.51" fill="#ff6388"/><polygon points="724.83,378.17 756.34,378.17 724.83,409.68" fill="#ff90aa"/><rect x="693.31" y="409.69" width="31.51" height="31.51" fill="#c1ccf7"/><polygon points="693.31,409.69 724.8199999999999,409.69 724.8199999999999,441.2" fill="#ff557d"/><rect x="724.83" y="409.69" width="31.51" height="31.51" fill="#8499ef"/><polygon points="724.83,409.69 756.34,441.2 724.83,441.2" fill="#1d43e2"/><rect x="756.3428571428572" y="378.1714285714286" width="63.02857142857143" height="63.02857142857143" fill="#ffffff"/><rect x="756.34" y="378.17" width="31.51" height="31.51" fill="#ffc2d0"/><polygon points="787.85,378.17 787.85,409.68 756.34,409.68" fill="#bec9f7"/><rect x="787.86" y="378.17" width="31.51" height="31.51" fill="#93a6f1"/><polygon points="787.86,378.17 819.37,378.17 787.86,409.68" fill="#ff3666"/><rect x="756.34" y="409.69" width="31.51" height="31.51" fill="#ff6287"/><polygon points="756.34,409.69 787.85,409.69 787.85,441.2" fill="#ff3f6d"/><rect x="787.86" y="409.69" width="31.51" height="31.51" fill="#ff688c"/><polygon points="787.86,409.69 819.37,441.2 787.86,441.2" fill="#ffdae3"/></g></svg>